<svg width="25" height="24" viewBox="0 0 25 24" fill="none" xmlns="http://www.w3.org/2000/svg">
<rect x="1" y="0.5" width="23" height="23" rx="11.5" fill="#018A10"/>
<rect x="1" y="0.5" width="23" height="23" rx="11.5" stroke="white"/>
<path d="M10.9192 6.33203H14.0806C14.5405 6.33203 14.81 6.46589 15.0741 6.77619C15.0877 6.79212 15.3104 7.06904 15.5529 7.36831C15.7953 7.66759 16.2891 7.9987 16.7423 7.9987H17.0454C18.4999 7.9987 19.1666 8.88759 19.1666 10.3691V14.9617C19.1666 16.2708 18.0812 17.332 16.7423 17.332H8.25749C6.91862 17.332 5.83325 16.2708 5.83325 14.9617V10.3691C5.83325 8.88759 6.49992 7.9987 7.95446 7.9987H8.25749C8.71076 7.9987 9.20452 7.66759 9.44698 7.36831C9.68944 7.06904 9.91213 6.79212 9.92569 6.77619C10.1898 6.46589 10.4593 6.33203 10.9192 6.33203ZM9.16659 12.332C9.16659 14.172 10.6599 15.6654 12.4999 15.6654C14.3399 15.6654 15.8333 14.172 15.8333 12.332C15.8333 10.492 14.3399 8.9987 12.4999 8.9987C10.6599 8.9987 9.16659 10.492 9.16659 12.332ZM10.2333 12.332C10.2333 11.0801 11.2479 10.0654 12.4999 10.0654C13.7519 10.0654 14.7666 11.0801 14.7666 12.332C14.7666 13.584 13.7519 14.5987 12.4999 14.5987C11.2479 14.5987 10.2333 13.584 10.2333 12.332Z" fill="white"/>
</svg>
