<svg width="20" height="20" viewBox="0 0 20 20" fill="none" xmlns="http://www.w3.org/2000/svg">
<path d="M11.8233 5.22729L14.7725 8.17646L7.58679 15.3631C6.94241 16.0074 6.14959 16.4836 5.27805 16.7496L2.8593 17.488C2.7124 17.5329 2.55696 17.4501 2.51212 17.3033C2.49596 17.2503 2.49596 17.1938 2.51212 17.1409L3.25045 14.7223C3.51657 13.8506 3.99282 13.0577 4.63732 12.4133L11.8233 5.22729ZM15.9492 2.86999L17.1311 4.05189C17.5888 4.5095 17.6174 5.23371 17.217 5.72468L17.1311 5.81961L15.6567 7.29313L12.7067 4.34313L14.1814 2.86996C14.6696 2.38187 15.4611 2.38189 15.9492 2.86999Z" fill="#5DD148"/>
</svg>
