<svg width="23" height="24" viewBox="0 0 23 24" fill="none" xmlns="http://www.w3.org/2000/svg">
<path d="M19.1668 9.5V6.8C19.1668 5.11984 19.1668 4.27976 18.8535 3.63803C18.5778 3.07354 18.138 2.6146 17.5971 2.32698C16.9821 2 16.177 2 14.5668 2H8.4335C6.82334 2 6.01827 2 5.40327 2.32698C4.86231 2.6146 4.42249 3.07354 4.14685 3.63803C3.8335 4.27976 3.8335 5.11984 3.8335 6.8V17.2C3.8335 18.8802 3.8335 19.7202 4.14685 20.362C4.42249 20.9265 4.86231 21.3854 5.40327 21.673C6.01827 22 6.82334 22 8.4335 22H13.4168M13.4168 11H7.66683M9.5835 15H7.66683M15.3335 7H7.66683M15.8127 15.0022C15.9815 14.5014 16.3148 14.079 16.7535 13.81C17.1922 13.5409 17.708 13.4426 18.2095 13.5324C18.711 13.6221 19.1659 13.8942 19.4936 14.3004C19.8213 14.7066 20.0006 15.2207 19.9999 15.7517C19.9999 17.2506 17.8452 18 17.8452 18M17.873 21H17.8826" stroke="#018A10" stroke-width="2" stroke-linecap="round" stroke-linejoin="round"/>
</svg>
