<svg width="26" height="26" viewBox="0 0 26 26" fill="none" xmlns="http://www.w3.org/2000/svg">
<path d="M14.0832 11.9167H19.2832C20.4966 11.9167 21.1033 11.9167 21.5668 12.1528C21.9745 12.3605 22.306 12.692 22.5137 13.0997C22.7498 13.5632 22.7498 14.1699 22.7498 15.3833V22.75M14.0832 22.75V6.71667C14.0832 5.50322 14.0832 4.8965 13.847 4.43302C13.6393 4.02534 13.3078 3.69388 12.9002 3.48615C12.4367 3.25 11.83 3.25 10.6165 3.25H6.7165C5.50306 3.25 4.89633 3.25 4.43286 3.48615C4.02517 3.69388 3.69372 4.02534 3.48599 4.43302C3.24984 4.8965 3.24984 5.50322 3.24984 6.71667V22.75M23.8332 22.75H2.1665M7.0415 7.58333H10.2915M7.0415 11.9167H10.2915M7.0415 16.25H10.2915" stroke="#018A10" stroke-width="2" stroke-linecap="round" stroke-linejoin="round"/>
</svg>
