<svg width="81" height="80" viewBox="0 0 81 80" fill="none" xmlns="http://www.w3.org/2000/svg">
<rect x="0.5" width="80" height="80" rx="20" fill="white"/>
<path fill-rule="evenodd" clip-rule="evenodd" d="M19.2249 58.8101C18.8894 59.4438 19.1311 60.2296 19.7649 60.5652C19.9639 60.6706 20.1869 60.7224 20.412 60.7156C25.5484 60.5594 29.1504 59.3321 31.4811 57.2709L32.3803 56.4757L33.5281 56.8272C35.7397 57.5044 38.0856 57.8566 40.4999 57.8566C52.5706 57.8566 61.9284 49.1115 61.9284 38.5709C61.9284 28.0303 52.5706 19.2852 40.4999 19.2852C28.4291 19.2852 19.0713 28.0303 19.0713 38.5709C19.0713 42.2363 20.1977 45.7531 22.2974 48.7909L22.7992 49.5169L22.6442 50.3857C22.2812 52.4197 21.0787 55.3088 19.2249 58.8101ZM40.4278 31.0007C39.2992 31.0007 38.3454 31.7726 38.0757 32.8205C37.7807 33.9666 36.6124 34.6566 35.4663 34.3616C34.3202 34.0666 33.6302 32.8984 33.9252 31.7523C34.6705 28.8568 37.2963 26.715 40.4278 26.715C44.136 26.715 47.1421 29.721 47.1421 33.4293C47.1421 36.3897 45.5238 37.9376 44.39 38.9958C43.2784 40.0333 42.7157 40.5669 42.5492 41.7323C42.3818 42.9039 41.2964 43.7179 40.1248 43.5506C38.9533 43.3832 38.1392 42.2978 38.3066 41.1262C38.6911 38.4342 40.2645 36.9762 41.3052 36.0119L41.4657 35.8627C42.4748 34.9209 42.8564 34.4688 42.8564 33.4292C42.8564 32.088 41.7691 31.0007 40.4278 31.0007ZM40.4999 51.1435C41.92 51.1435 43.0713 49.9923 43.0713 48.5721C43.0713 47.1519 41.92 46.0007 40.4999 46.0007C39.0797 46.0007 37.9284 47.1519 37.9284 48.5721C37.9284 49.9923 39.0797 51.1435 40.4999 51.1435Z" fill="url(#paint0_linear_1448_105305)"/>
<defs>
<linearGradient id="paint0_linear_1448_105305" x1="25.7174" y1="25.8573" x2="55.1723" y2="55.9851" gradientUnits="userSpaceOnUse">
<stop stop-color="#AAFFDD"/>
<stop offset="1" stop-color="#5DD148"/>
</linearGradient>
</defs>
</svg>
