<svg width="20" height="20" viewBox="0 0 20 20" fill="none" xmlns="http://www.w3.org/2000/svg">
<g clip-path="url(#clip0_879_49566)">
<path d="M4.16663 11.9051C2.62382 12.5857 1.66663 13.5341 1.66663 14.5832C1.66663 16.6542 5.39759 18.3332 9.99996 18.3332C14.6023 18.3332 18.3333 16.6542 18.3333 14.5832C18.3333 13.5341 17.3761 12.5857 15.8333 11.9051M15 6.6665C15 10.0529 11.25 11.6665 9.99996 14.1665C8.74996 11.6665 4.99996 10.0529 4.99996 6.6665C4.99996 3.90508 7.23854 1.6665 9.99996 1.6665C12.7614 1.6665 15 3.90508 15 6.6665ZM10.8333 6.6665C10.8333 7.12674 10.4602 7.49984 9.99996 7.49984C9.53972 7.49984 9.16663 7.12674 9.16663 6.6665C9.16663 6.20627 9.53972 5.83317 9.99996 5.83317C10.4602 5.83317 10.8333 6.20627 10.8333 6.6665Z" stroke="#B2B3B2" stroke-width="1.5" stroke-linecap="round" stroke-linejoin="round"/>
</g>
<defs>
<clipPath id="clip0_879_49566">
<rect width="20" height="20" fill="white"/>
</clipPath>
</defs>
</svg>
