<svg width="166" height="164" viewBox="0 0 166 164" fill="none" xmlns="http://www.w3.org/2000/svg">
<path d="M79.1627 153.299H86.2044C87.0427 153.299 87.9089 152.461 87.9089 151.623C87.9089 150.784 87.0706 149.918 86.2044 149.918H79.1627C78.3244 149.918 77.4861 150.756 77.4861 151.623C77.4861 152.489 78.3244 153.299 79.1627 153.299Z" fill="#5DD148"/>
<path d="M22.8293 142.289C18.051 142.289 14.1111 146.229 14.1111 151.008C14.1111 155.786 18.051 159.754 22.8293 159.754C27.6076 159.754 31.5755 155.814 31.5755 151.008C31.8549 146.229 27.915 142.289 22.8293 142.289ZM22.8293 156.373C20.0071 156.373 17.4643 154.109 17.4643 151.008C17.4643 148.185 19.7276 145.642 22.8293 145.642C25.6516 145.642 28.1944 147.906 28.1944 151.008C28.1944 154.109 25.931 156.373 22.8293 156.373Z" fill="#5DD148"/>
<path d="M144.522 140.613C138.598 140.613 133.82 145.392 133.82 151.316C133.82 157.24 138.598 162.018 144.522 162.018C150.446 162.018 155.224 157.24 155.224 151.316C155.224 145.392 150.139 140.613 144.522 140.613ZM144.522 158.078C140.582 158.078 137.48 154.976 137.48 151.036C137.48 147.096 140.582 143.994 144.522 143.994C148.462 143.994 151.564 147.096 151.564 151.036C151.564 154.976 148.183 158.078 144.522 158.078Z" fill="#5DD148"/>
<path d="M152.43 121.164C153.827 121.164 154.972 122.31 154.972 123.707C154.972 125.104 153.827 126.25 152.43 126.25C151.032 126.25 149.887 125.104 149.887 123.707C149.887 122.31 151.032 121.164 152.43 121.164Z" fill="#5DD148"/>
<path d="M125.94 144.273C127.337 144.273 128.483 145.419 128.483 146.816C128.483 148.214 127.337 149.359 125.94 149.359C124.543 149.359 123.397 148.214 123.397 146.816C123.397 145.419 124.543 144.273 125.94 144.273Z" fill="#5DD148"/>
<path d="M143.683 121.164C145.081 121.164 146.226 122.31 146.226 123.707C146.226 125.104 145.081 126.25 143.683 126.25C142.286 126.25 141.141 125.104 141.141 123.707C141.141 122.31 142.286 121.164 143.683 121.164Z" fill="#5DD148"/>
<path d="M41.4117 138.91C42.8089 138.91 43.9545 140.056 43.9545 141.453C43.9545 142.85 42.8089 143.996 41.4117 143.996C40.0146 143.996 38.8689 142.85 38.8689 141.453C38.8689 140.056 40.0146 138.91 41.4117 138.91Z" fill="#5DD148"/>
<path d="M6.20348 145.953C7.60063 145.953 8.74631 147.099 8.74631 148.496C8.74631 149.893 7.60063 151.039 6.20348 151.039C4.80632 151.039 3.66064 149.893 3.66064 148.496C3.66064 147.099 4.80632 145.953 6.20348 145.953Z" fill="#5DD148"/>
<path d="M162.852 156.379C164.25 156.379 165.395 157.525 165.395 158.922C165.395 160.319 164.25 161.465 162.852 161.465C161.455 161.465 160.31 160.319 160.31 158.922C160.31 157.525 161.455 156.379 162.852 156.379Z" fill="#5DD148"/>
<path d="M134.686 121.164C136.083 121.164 137.228 122.31 137.228 123.707C137.228 125.104 136.083 126.25 134.686 126.25C133.288 126.25 132.143 125.104 132.143 123.707C132.143 122.31 133.288 121.164 134.686 121.164Z" fill="#5DD148"/>
<path d="M152.988 20.8711H12.6861C5.64444 20.8711 0 26.5157 0 33.5576V123.145C0 130.187 5.64444 135.831 12.6861 135.831H70.4445C69.8857 141.756 65.0794 146.534 58.904 146.534H58.3452C53.5669 146.534 49.6269 150.474 49.6269 155.28C49.6269 160.087 53.5669 163.999 58.3452 163.999H107.357C112.136 163.999 116.076 160.059 116.076 155.28C116.076 150.502 112.136 146.534 107.357 146.534H106.519C100.595 146.534 95.5374 141.756 94.9786 135.831H152.737C159.779 135.831 165.423 130.187 165.423 123.145V33.5576C165.703 26.5157 159.779 20.8711 153.016 20.8711H152.988ZM12.6861 24.2523H152.988C158.046 24.2523 162.293 28.4718 162.293 33.5576V111.045H3.68851V33.5576C3.68851 28.4997 7.62843 24.2523 12.7141 24.2523H12.6861ZM106.491 149.636H107.329C110.152 149.636 112.694 151.899 112.694 155.001C112.694 157.823 110.431 160.338 107.329 160.338H58.5967C55.7744 160.338 53.2316 158.075 53.2316 155.001C53.2316 152.179 55.495 149.636 58.5967 149.636H59.1555C67.0354 149.636 73.7977 143.432 74.0771 135.552H91.821C92.1004 143.432 98.5833 149.636 106.463 149.636H106.491ZM152.988 132.171H12.6861C7.6284 132.171 3.38109 127.951 3.38109 122.866V114.427H161.986V122.866C161.986 127.923 158.046 132.171 152.96 132.171H152.988Z" fill="#5DD148"/>
<path d="M12.4068 105.405H153.268C154.106 105.405 154.945 104.567 154.945 103.728V33.2821C154.945 32.4438 154.106 31.6055 153.268 31.6055H12.4068C11.5685 31.6055 10.7302 32.4438 10.7302 33.2821V103.728C10.7302 104.567 11.2891 105.405 12.4068 105.405ZM151.591 34.9587V66.7866H135.804C134.965 66.7866 134.099 67.6249 134.099 68.4632C134.099 69.3015 134.937 70.1678 135.804 70.1678H151.591V73.8284H135.804C134.965 73.8284 134.099 74.6667 134.099 75.505C134.099 76.3434 134.937 77.1817 135.804 77.1817H151.591V80.8423H135.804C134.965 80.8423 134.099 81.6806 134.099 82.5189C134.099 83.3572 134.937 84.2235 135.804 84.2235H151.591V87.8841H135.804C134.965 87.8841 134.099 88.7224 134.099 89.5607C134.099 90.399 134.937 91.2374 135.804 91.2374H151.591V94.898H135.804C134.965 94.898 134.099 95.7363 134.099 96.6026C134.099 97.4688 134.937 98.2792 135.804 98.2792H151.591V101.94H14.1113V98.2792H29.8991C30.7374 98.2792 31.6037 97.4409 31.6037 96.6026C31.6037 95.7642 30.7654 94.898 29.8991 94.898H14.1113V91.2374H29.8991C30.7374 91.2374 31.6037 90.399 31.6037 89.5607C31.6037 88.7224 30.7654 87.8841 29.8991 87.8841H14.1113V84.2235H29.8991C30.7374 84.2235 31.6037 83.3852 31.6037 82.5189C31.6037 81.6526 30.7654 80.8423 29.8991 80.8423H14.1113V77.1817H29.8991C30.7374 77.1817 31.6037 76.3434 31.6037 75.505C31.6037 74.6667 30.7654 73.8284 29.8991 73.8284H14.1113V70.1678H29.8991C30.7374 70.1678 31.6037 69.3295 31.6037 68.4632C31.6037 67.597 30.7654 66.7866 29.8991 66.7866H14.1113V34.9587H151.591Z" fill="#5DD148"/>
<path d="M124.263 6.78906C125.66 6.78906 126.806 7.93472 126.806 9.33191C126.806 10.7291 125.66 11.8748 124.263 11.8748C122.866 11.8748 121.72 10.7291 121.72 9.33191C121.72 7.93472 122.866 6.78906 124.263 6.78906Z" fill="#5DD148"/>
<path d="M52.142 82.5781C53.5391 82.5781 54.6848 83.7238 54.6848 85.121C54.6848 86.5182 53.5391 87.6639 52.142 87.6639C50.7448 87.6639 49.5991 86.5182 49.5991 85.121C49.5991 83.7238 50.7448 82.5781 52.142 82.5781Z" fill="#5DD148"/>
<path d="M60.8602 82.5781C62.2574 82.5781 63.403 83.7238 63.403 85.121C63.403 86.5182 62.2574 87.6639 60.8602 87.6639C59.4631 87.6639 58.3174 86.5182 58.3174 85.121C58.3174 83.7238 59.4631 82.5781 60.8602 82.5781Z" fill="#5DD148"/>
<path d="M69.6063 82.5781C71.0035 82.5781 72.1491 83.7238 72.1491 85.121C72.1491 86.5182 71.0035 87.6639 69.6063 87.6639C68.2092 87.6639 67.0635 86.5182 67.0635 85.121C67.0635 83.7238 68.2092 82.5781 69.6063 82.5781Z" fill="#5DD148"/>
<path d="M78.3246 82.5781C79.7217 82.5781 80.8674 83.7238 80.8674 85.121C80.8674 86.5182 79.7217 87.6639 78.3246 87.6639C76.9274 87.6639 75.7817 86.5182 75.7817 85.121C75.7817 83.7238 76.9274 82.5781 78.3246 82.5781Z" fill="#5DD148"/>
<path d="M81.9852 6.78906C83.3824 6.78906 84.528 7.93472 84.528 9.33191C84.528 10.7291 83.3824 11.8748 81.9852 11.8748C80.5881 11.8748 79.4424 10.7291 79.4424 9.33191C79.4424 7.93472 80.5881 6.78906 81.9852 6.78906Z" fill="#5DD148"/>
<path d="M45.1004 10.4531C46.4976 10.4531 47.6433 11.5988 47.6433 12.996C47.6433 14.3932 46.4976 15.5389 45.1004 15.5389C43.7033 15.5389 42.5576 14.3932 42.5576 12.996C42.5576 11.5988 43.7033 10.4531 45.1004 10.4531Z" fill="#5DD148"/>
<path d="M29.8715 17.2125C33.8115 17.2125 36.9132 14.1108 36.9132 10.1707C36.9132 6.23063 33.8115 3.12891 29.8715 3.12891C25.9316 3.12891 22.8298 6.23063 22.8298 10.1707C22.8298 14.1108 26.211 17.2125 29.8715 17.2125ZM29.8715 6.78952C31.8555 6.78952 33.5321 8.46614 33.5321 10.4501C33.5321 12.4341 31.8555 14.1108 29.8715 14.1108C27.8876 14.1108 26.211 12.4341 26.211 10.4501C26.4904 8.1867 27.8876 6.78952 29.8715 6.78952Z" fill="#5DD148"/>
<path d="M143.683 19.1694C149.021 19.1694 153.268 14.9499 153.268 9.58471C153.268 4.21952 149.049 0 143.683 0C138.318 0 134.099 4.21952 134.099 9.58471C133.82 14.6425 138.318 19.1694 143.683 19.1694ZM143.683 3.10175C147.065 3.10175 149.887 5.92407 149.887 9.30526C149.887 12.6864 147.065 15.5088 143.683 15.5088C140.302 15.5088 137.48 12.6864 137.48 9.30526C137.48 5.92407 140.023 3.10175 143.683 3.10175Z" fill="#5DD148"/>
<path d="M52.1421 94.6733H113.84C119.205 94.6733 123.425 90.4538 123.425 85.0886C123.425 79.7234 119.205 75.5039 113.84 75.5039H52.1421C46.8049 75.5039 42.5575 79.7234 42.5575 85.0886C42.2781 90.4538 46.777 94.6733 52.1421 94.6733ZM52.1421 78.8851H113.84C117.222 78.8851 120.044 81.7074 120.044 85.0886C120.044 88.4698 117.222 91.2921 113.84 91.2921H52.1421C48.761 91.2921 45.9387 88.4698 45.9387 85.0886C45.9387 81.7074 48.4815 78.8851 52.1421 78.8851Z" fill="#5DD148"/>
<path d="M67.0634 71.8735H98.3317C99.17 71.8735 100.008 71.0352 100.008 70.1969V64.8317C100.008 64.5522 100.008 64.2728 99.7289 63.9934C97.186 60.0533 93.246 57.231 89.0266 55.8338C91.0106 54.1292 92.4078 51.3349 92.4078 48.5126C92.4078 43.1474 87.9089 38.6484 82.5438 38.6484C77.1787 38.6484 72.6799 43.1474 72.6799 48.5126C72.6799 51.3349 74.0771 54.1572 76.061 55.8338C71.8416 57.231 67.9016 60.0533 65.3588 63.9934C65.0794 64.2728 65.0793 64.5522 65.0793 64.8317V70.1969C65.3588 71.0352 66.1971 71.8735 67.0634 71.8735ZM76.6478 48.2052C76.6478 44.824 79.4701 42.0017 82.8512 42.0017C86.2323 42.0017 89.0546 44.824 89.0546 48.2052C89.0546 51.5864 86.2323 54.4087 82.8512 54.4087C79.4701 54.4087 76.6478 51.5864 76.6478 48.2052ZM69.0473 65.1111C75.8095 55.5264 90.1723 55.5264 96.9345 65.1111V68.2129H90.4517V65.9494C90.4517 65.1111 89.6134 64.2449 88.7751 64.2449C87.9368 64.2449 87.0706 65.0832 87.0706 65.9494V68.2129H79.1907V65.9494C79.1907 65.1111 78.3524 64.2449 77.5141 64.2449C76.6758 64.2449 75.2507 65.0832 75.2507 65.9494V68.2129H68.7679V65.1111H69.0473Z" fill="#5DD148"/>
</svg>
