<svg width="139" height="40" viewBox="0 0 139 40" fill="none" xmlns="http://www.w3.org/2000/svg">
<path d="M137.964 35.3869C137.964 37.5185 136.201 39.2452 134.021 39.2452H4.98855C2.80937 39.2452 1.04053 37.5185 1.04053 35.3869V4.618C1.04053 2.48736 2.80937 0.754639 4.98855 0.754639H134.02C136.201 0.754639 137.963 2.48736 137.963 4.618L137.964 35.3869Z" fill="white"/>
<path d="M133.605 0.801252C135.979 0.801252 137.911 2.685 137.911 5V35C137.911 37.315 135.979 39.1988 133.605 39.1988H5.39945C3.02509 39.1988 1.09303 37.315 1.09303 35V5C1.09303 2.685 3.02509 0.801252 5.39945 0.801252H133.605ZM133.605 2.11397e-06H5.39945C2.58021 2.11397e-06 0.27124 2.25125 0.27124 5V35C0.27124 37.7487 2.58021 40 5.39945 40H133.605C136.424 40 138.733 37.7487 138.733 35V5C138.733 2.25125 136.424 2.11397e-06 133.605 2.11397e-06Z" fill="#A6A6A6"/>
<path d="M31.1717 19.7839C31.142 16.5609 33.8784 14.9929 34.0035 14.9199C32.4538 12.7169 30.0517 12.4159 29.2076 12.3919C27.1902 12.1849 25.2333 13.5689 24.2056 13.5689C23.1574 13.5689 21.5748 12.4119 19.8692 12.4459C17.6743 12.4789 15.621 13.7179 14.4948 15.6419C12.1707 19.5649 13.904 25.3299 16.1307 28.5009C17.2445 30.0539 18.5461 31.7879 20.2497 31.7269C21.9163 31.6599 22.5389 30.6909 24.5502 30.6909C26.543 30.6909 27.1276 31.7269 28.8651 31.6879C30.6538 31.6599 31.7799 30.1279 32.8548 28.5609C34.142 26.7809 34.6589 25.0279 34.6794 24.9379C34.6374 24.9239 31.2056 23.6469 31.1717 19.7839Z" fill="black"/>
<path d="M27.8897 10.3059C28.7861 9.21292 29.3994 7.72592 29.2292 6.21692C27.9317 6.27292 26.3092 7.09192 25.3748 8.16092C24.5481 9.10292 23.8097 10.6469 24.0004 12.0989C25.4579 12.2049 26.9543 11.3819 27.8897 10.3059Z" fill="black"/>
<path d="M55.2919 31.504H52.9626L51.6867 27.595H47.2519L46.0365 31.504H43.7688L48.1626 18.196H50.8765L55.2919 31.504ZM51.3021 25.955L50.1483 22.48C50.0262 22.125 49.7975 21.289 49.4601 19.973H49.4191C49.2847 20.539 49.0683 21.375 48.7708 22.48L47.6375 25.955H51.3021Z" fill="black"/>
<path d="M66.5912 26.5881C66.5912 28.2201 66.1389 29.5101 65.2343 30.4571C64.4241 31.3001 63.4179 31.7211 62.2169 31.7211C60.9205 31.7211 59.9892 31.2671 59.422 30.3591H59.381V35.4141H57.1943V25.0671C57.1943 24.0411 57.1666 22.9881 57.1133 21.9081H59.0364L59.1584 23.4291H59.1994C59.9287 22.2831 61.0353 21.7111 62.5205 21.7111C63.6815 21.7111 64.6507 22.1581 65.4261 23.0531C66.2035 23.9491 66.5912 25.1271 66.5912 26.5881ZM64.3635 26.6661C64.3635 25.7321 64.1482 24.9621 63.7153 24.3561C63.2425 23.7241 62.6076 23.4081 61.8117 23.4081C61.2723 23.4081 60.782 23.5841 60.344 23.9311C59.9051 24.2811 59.6179 24.7381 59.4835 25.3041C59.4158 25.5681 59.382 25.7841 59.382 25.9541V27.5541C59.382 28.2521 59.6015 28.8411 60.0405 29.3221C60.4794 29.8031 61.0497 30.0431 61.7512 30.0431C62.5748 30.0431 63.2158 29.7331 63.6743 29.1151C64.1338 28.4961 64.3635 27.6801 64.3635 26.6661Z" fill="black"/>
<path d="M77.9112 26.5881C77.9112 28.2201 77.4589 29.5101 76.5533 30.4571C75.7441 31.3001 74.7379 31.7211 73.5369 31.7211C72.2405 31.7211 71.3092 31.2671 70.743 30.3591H70.702V35.4141H68.5154V25.0671C68.5154 24.0411 68.4877 22.9881 68.4343 21.9081H70.3574L70.4795 23.4291H70.5205C71.2487 22.2831 72.3554 21.7111 73.8415 21.7111C75.0015 21.7111 75.9707 22.1581 76.7482 23.0531C77.5225 23.9491 77.9112 25.1271 77.9112 26.5881ZM75.6836 26.6661C75.6836 25.7321 75.4671 24.9621 75.0343 24.3561C74.5615 23.7241 73.9287 23.4081 73.1318 23.4081C72.5913 23.4081 72.102 23.5841 71.663 23.9311C71.2241 24.2811 70.9379 24.7381 70.8036 25.3041C70.7369 25.5681 70.702 25.7841 70.702 25.9541V27.5541C70.702 28.2521 70.9215 28.8411 71.3584 29.3221C71.7974 29.8021 72.3677 30.0431 73.0713 30.0431C73.8948 30.0431 74.5359 29.7331 74.9943 29.1151C75.4538 28.4961 75.6836 27.6801 75.6836 26.6661Z" fill="black"/>
<path d="M90.5678 27.772C90.5678 28.904 90.1647 29.825 89.3555 30.536C88.4663 31.313 87.2283 31.701 85.6375 31.701C84.1688 31.701 82.9914 31.425 82.1001 30.872L82.6068 29.095C83.5668 29.661 84.6201 29.945 85.7678 29.945C86.5914 29.945 87.2324 29.763 87.6929 29.401C88.1514 29.039 88.3801 28.553 88.3801 27.947C88.3801 27.407 88.1914 26.952 87.8129 26.583C87.4365 26.214 86.8078 25.871 85.9298 25.554C83.5401 24.685 82.3463 23.412 82.3463 21.738C82.3463 20.644 82.7647 19.747 83.6027 19.049C84.4375 18.35 85.5514 18.001 86.9442 18.001C88.1862 18.001 89.218 18.212 90.0416 18.633L89.495 20.371C88.7257 19.963 87.856 19.759 86.8827 19.759C86.1134 19.759 85.5124 19.944 85.0816 20.312C84.7175 20.641 84.535 21.042 84.535 21.517C84.535 22.043 84.7432 22.478 85.1616 22.82C85.5257 23.136 86.1873 23.478 87.1473 23.847C88.3216 24.308 89.1842 24.847 89.7391 25.465C90.2919 26.081 90.5678 26.852 90.5678 27.772Z" fill="black"/>
<path d="M97.7976 23.508H95.3873V28.167C95.3873 29.352 95.8119 29.944 96.6632 29.944C97.054 29.944 97.3781 29.911 97.6345 29.845L97.695 31.464C97.2642 31.621 96.697 31.7 95.9945 31.7C95.1309 31.7 94.456 31.443 93.9688 30.93C93.4837 30.416 93.2396 29.554 93.2396 28.343V23.506H91.8037V21.906H93.2396V20.149L95.3873 19.517V21.906H97.7976V23.508Z" fill="black"/>
<path d="M108.672 26.627C108.672 28.102 108.239 29.313 107.376 30.26C106.47 31.235 105.268 31.721 103.77 31.721C102.326 31.721 101.176 31.254 100.318 30.32C99.4609 29.386 99.0322 28.207 99.0322 26.786C99.0322 25.299 99.4733 24.081 100.358 23.134C101.241 22.186 102.433 21.712 103.932 21.712C105.376 21.712 106.538 22.179 107.415 23.114C108.254 24.021 108.672 25.192 108.672 26.627ZM106.404 26.696C106.404 25.811 106.21 25.052 105.817 24.419C105.358 23.653 104.703 23.271 103.854 23.271C102.975 23.271 102.307 23.654 101.849 24.419C101.456 25.053 101.262 25.824 101.262 26.736C101.262 27.621 101.456 28.38 101.849 29.012C102.321 29.778 102.982 30.16 103.834 30.16C104.669 30.16 105.325 29.77 105.797 28.992C106.2 28.347 106.404 27.58 106.404 26.696Z" fill="black"/>
<path d="M115.78 23.7831C115.564 23.7441 115.333 23.7241 115.091 23.7241C114.322 23.7241 113.727 24.0071 113.308 24.5741C112.944 25.0741 112.762 25.7061 112.762 26.4691V31.5041H110.576L110.596 24.9301C110.596 23.8241 110.569 22.8171 110.514 21.9091H112.419L112.499 23.7451H112.56C112.79 23.1141 113.154 22.6061 113.653 22.2251C114.14 21.8821 114.666 21.7111 115.233 21.7111C115.435 21.7111 115.618 21.7251 115.78 21.7501V23.7831Z" fill="black"/>
<path d="M125.559 26.252C125.559 26.634 125.534 26.956 125.479 27.219H118.919C118.945 28.167 119.262 28.892 119.871 29.392C120.424 29.839 121.139 30.063 122.017 30.063C122.988 30.063 123.874 29.912 124.671 29.609L125.014 31.089C124.082 31.485 122.983 31.682 121.714 31.682C120.188 31.682 118.99 31.244 118.118 30.369C117.249 29.494 116.813 28.319 116.813 26.845C116.813 25.398 117.218 24.193 118.029 23.232C118.878 22.206 120.026 21.693 121.47 21.693C122.889 21.693 123.962 22.206 124.692 23.232C125.269 24.047 125.559 25.055 125.559 26.252ZM123.474 25.699C123.489 25.067 123.346 24.521 123.05 24.06C122.671 23.467 122.09 23.171 121.307 23.171C120.592 23.171 120.011 23.46 119.567 24.04C119.202 24.501 118.986 25.054 118.919 25.698H123.474V25.699Z" fill="black"/>
<path d="M50.5789 10.0091C50.5789 11.1861 50.2169 12.0721 49.4938 12.6671C48.8241 13.2161 47.8723 13.4911 46.6394 13.4911C46.0282 13.4911 45.5051 13.4651 45.0671 13.4131V6.98207C45.6384 6.89207 46.2538 6.84607 46.9184 6.84607C48.0928 6.84607 48.9779 7.09507 49.5748 7.59307C50.2436 8.15607 50.5789 8.96107 50.5789 10.0091ZM49.4456 10.0381C49.4456 9.27507 49.2384 8.69007 48.8241 8.28207C48.4097 7.87507 47.8046 7.67107 47.0077 7.67107C46.6692 7.67107 46.381 7.69307 46.142 7.73907V12.6281C46.2743 12.6481 46.5164 12.6571 46.8682 12.6571C47.6907 12.6571 48.3256 12.4341 48.7728 11.9881C49.22 11.5421 49.4456 10.8921 49.4456 10.0381Z" fill="black"/>
<path d="M56.5882 11.037C56.5882 11.762 56.3759 12.356 55.9512 12.822C55.5061 13.301 54.9164 13.54 54.18 13.54C53.4702 13.54 52.9051 13.311 52.4836 12.851C52.063 12.392 51.8528 11.813 51.8528 11.115C51.8528 10.385 52.0692 9.78605 52.5041 9.32105C52.9389 8.85605 53.5236 8.62305 54.26 8.62305C54.9697 8.62305 55.54 8.85205 55.9718 9.31105C56.382 9.75705 56.5882 10.333 56.5882 11.037ZM55.4733 11.071C55.4733 10.636 55.3769 10.263 55.1851 9.95205C54.9595 9.57605 54.6384 9.38805 54.221 9.38805C53.7892 9.38805 53.461 9.57605 53.2353 9.95205C53.0425 10.263 52.9471 10.642 52.9471 11.09C52.9471 11.525 53.0436 11.898 53.2353 12.209C53.4682 12.585 53.7923 12.773 54.2107 12.773C54.621 12.773 54.943 12.582 55.1748 12.199C55.3738 11.882 55.4733 11.506 55.4733 11.071Z" fill="black"/>
<path d="M64.6457 8.71899L63.1329 13.433H62.1483L61.5216 11.386C61.3627 10.875 61.2334 10.367 61.1329 9.86299H61.1134C61.0201 10.381 60.8909 10.888 60.7247 11.386L60.0591 13.433H59.0632L57.6406 8.71899H58.7452L59.2919 10.96C59.4242 11.49 59.5329 11.995 59.6201 12.473H59.6396C59.7196 12.079 59.8519 11.577 60.0386 10.97L60.7247 8.71999H61.6006L62.2581 10.922C62.417 11.459 62.5463 11.976 62.6457 12.474H62.6755C62.7483 11.989 62.8581 11.472 63.0037 10.922L63.5904 8.71999H64.6457V8.71899Z" fill="black"/>
<path d="M70.2179 13.4331H69.143V10.7331C69.143 9.90112 68.8189 9.48512 68.1687 9.48512C67.8497 9.48512 67.5923 9.59912 67.3923 9.82812C67.1943 10.0571 67.0938 10.3271 67.0938 10.6361V13.4321H66.0189V10.0661C66.0189 9.65212 66.0056 9.20312 65.98 8.71712H66.9246L66.9749 9.45412H67.0046C67.1297 9.22512 67.3164 9.03612 67.5615 8.88512C67.8528 8.70912 68.1789 8.62012 68.5359 8.62012C68.9871 8.62012 69.3625 8.76212 69.661 9.04712C70.0323 9.39612 70.2179 9.91712 70.2179 10.6091V13.4331Z" fill="black"/>
<path d="M73.182 13.433H72.1082V6.55603H73.182V13.433Z" fill="black"/>
<path d="M79.5103 11.037C79.5103 11.762 79.298 12.356 78.8734 12.822C78.4282 13.301 77.8375 13.54 77.1021 13.54C76.3913 13.54 75.8262 13.311 75.4057 12.851C74.9852 12.392 74.7749 11.813 74.7749 11.115C74.7749 10.385 74.9913 9.78605 75.4262 9.32105C75.8611 8.85605 76.4457 8.62305 77.1811 8.62305C77.8918 8.62305 78.4611 8.85205 78.8939 9.31105C79.3041 9.75705 79.5103 10.333 79.5103 11.037ZM78.3944 11.071C78.3944 10.636 78.298 10.263 78.1062 9.95205C77.8816 9.57605 77.5595 9.38805 77.1431 9.38805C76.7103 9.38805 76.3821 9.57605 76.1575 9.95205C75.9646 10.263 75.8693 10.642 75.8693 11.09C75.8693 11.525 75.9657 11.898 76.1575 12.209C76.3903 12.585 76.7144 12.773 77.1329 12.773C77.5431 12.773 77.8641 12.582 78.0959 12.199C78.2959 11.882 78.3944 11.506 78.3944 11.071Z" fill="black"/>
<path d="M84.7124 13.433H83.7473L83.6673 12.89H83.6375C83.3073 13.323 82.8365 13.54 82.2252 13.54C81.7688 13.54 81.3996 13.397 81.1216 13.113C80.8693 12.855 80.7432 12.534 80.7432 12.153C80.7432 11.577 80.9893 11.138 81.4847 10.834C81.9791 10.53 82.6744 10.381 83.5698 10.388V10.3C83.5698 9.67905 83.2355 9.36905 82.5657 9.36905C82.0888 9.36905 81.6683 9.48605 81.3052 9.71805L81.0868 9.03005C81.536 8.75905 82.0909 8.62305 82.7452 8.62305C84.0088 8.62305 84.6426 9.27305 84.6426 10.573V12.309C84.6426 12.78 84.6662 13.155 84.7124 13.433ZM83.5965 11.813V11.086C82.4109 11.066 81.818 11.383 81.818 12.036C81.818 12.282 81.8857 12.466 82.0242 12.589C82.1626 12.712 82.3391 12.773 82.5493 12.773C82.7852 12.773 83.0057 12.7 83.2068 12.555C83.4088 12.409 83.5329 12.224 83.5791 11.997C83.5903 11.946 83.5965 11.884 83.5965 11.813Z" fill="black"/>
<path d="M90.82 13.433H89.8661L89.8159 12.676H89.7861C89.4815 13.252 88.9625 13.54 88.2333 13.54C87.6507 13.54 87.1656 13.317 86.781 12.871C86.3964 12.425 86.2046 11.846 86.2046 11.135C86.2046 10.372 86.4128 9.75403 86.8313 9.28203C87.2364 8.84203 87.7328 8.62203 88.3236 8.62203C88.9728 8.62203 89.4271 8.83503 89.6856 9.26203H89.7061V6.55603H90.782V12.163C90.782 12.622 90.7943 13.045 90.82 13.433ZM89.7061 11.445V10.659C89.7061 10.523 89.6959 10.413 89.6764 10.329C89.6159 10.077 89.4856 9.86503 89.2877 9.69403C89.0877 9.52303 88.8466 9.43703 88.5687 9.43703C88.1677 9.43703 87.8538 9.59203 87.623 9.90303C87.3943 10.214 87.2784 10.611 87.2784 11.096C87.2784 11.562 87.3882 11.94 87.6087 12.231C87.8415 12.541 88.1554 12.696 88.5482 12.696C88.901 12.696 89.183 12.567 89.3974 12.308C89.6046 12.069 89.7061 11.781 89.7061 11.445Z" fill="black"/>
<path d="M100.013 11.037C100.013 11.762 99.8004 12.356 99.3758 12.822C98.9307 13.301 98.342 13.54 97.6045 13.54C96.8958 13.54 96.3307 13.311 95.9081 12.851C95.4876 12.392 95.2773 11.813 95.2773 11.115C95.2773 10.385 95.4938 9.78605 95.9286 9.32105C96.3635 8.85605 96.9481 8.62305 97.6855 8.62305C98.3943 8.62305 98.9656 8.85205 99.3963 9.31105C99.8066 9.75705 100.013 10.333 100.013 11.037ZM98.8989 11.071C98.8989 10.636 98.8025 10.263 98.6107 9.95205C98.384 9.57605 98.064 9.38805 97.6456 9.38805C97.2148 9.38805 96.8866 9.57605 96.6599 9.95205C96.4671 10.263 96.3717 10.642 96.3717 11.09C96.3717 11.525 96.4681 11.898 96.6599 12.209C96.8927 12.585 97.2168 12.773 97.6353 12.773C98.0455 12.773 98.3686 12.582 98.6004 12.199C98.7984 11.882 98.8989 11.506 98.8989 11.071Z" fill="black"/>
<path d="M105.792 13.4331H104.718V10.7331C104.718 9.90112 104.394 9.48512 103.743 9.48512C103.424 9.48512 103.167 9.59912 102.968 9.82812C102.769 10.0571 102.669 10.3271 102.669 10.6361V13.4321H101.593V10.0661C101.593 9.65212 101.581 9.20312 101.555 8.71712H102.499L102.549 9.45412H102.579C102.705 9.22512 102.892 9.03612 103.136 8.88512C103.428 8.70912 103.753 8.62012 104.111 8.62012C104.562 8.62012 104.937 8.76212 105.235 9.04712C105.608 9.39612 105.792 9.91712 105.792 10.6091V13.4331Z" fill="black"/>
<path d="M113.026 9.50404H111.843V11.794C111.843 12.376 112.053 12.667 112.469 12.667C112.662 12.667 112.822 12.651 112.948 12.618L112.976 13.413C112.764 13.491 112.485 13.53 112.141 13.53C111.716 13.53 111.386 13.404 111.147 13.152C110.907 12.9 110.788 12.476 110.788 11.881V9.50404H110.082V8.71904H110.788V7.85504L111.842 7.54504V8.71804H113.025V9.50404H113.026Z" fill="black"/>
<path d="M118.717 13.433H117.641V10.753C117.641 9.90803 117.317 9.48503 116.667 9.48503C116.169 9.48503 115.828 9.73003 115.642 10.22C115.61 10.323 115.591 10.449 115.591 10.597V13.432H114.518V6.55603H115.591V9.39703H115.612C115.95 8.88003 116.436 8.62203 117.064 8.62203C117.509 8.62203 117.878 8.76403 118.17 9.04903C118.534 9.40403 118.717 9.93203 118.717 10.63V13.433Z" fill="black"/>
<path d="M124.586 10.853C124.586 11.041 124.572 11.199 124.546 11.328H121.322C121.337 11.794 121.491 12.149 121.789 12.395C122.062 12.615 122.414 12.725 122.845 12.725C123.321 12.725 123.756 12.651 124.148 12.502L124.316 13.23C123.858 13.424 123.318 13.521 122.694 13.521C121.945 13.521 121.355 13.306 120.929 12.876C120.5 12.446 120.288 11.869 120.288 11.145C120.288 10.434 120.486 9.84201 120.885 9.37001C121.301 8.86601 121.864 8.61401 122.575 8.61401C123.27 8.61401 123.798 8.86601 124.155 9.37001C124.443 9.77001 124.586 10.265 124.586 10.853ZM123.56 10.582C123.569 10.271 123.498 10.003 123.352 9.77701C123.166 9.48601 122.881 9.34001 122.497 9.34001C122.146 9.34001 121.86 9.48201 121.641 9.76701C121.463 9.99401 121.357 10.265 121.322 10.582H123.56Z" fill="black"/>
</svg>
