<svg width="20" height="20" viewBox="0 0 20 20" fill="none" xmlns="http://www.w3.org/2000/svg">
<path d="M15.4757 16.6668C16.5273 16.6668 17.3807 15.8143 17.3807 14.7618V10.9527L18.3332 10.0002L17.3807 9.04766V5.2385C17.3807 4.186 16.5282 3.3335 15.4757 3.3335M4.52416 3.3335C3.47166 3.3335 2.61916 4.186 2.61916 5.2385V9.04766L1.66666 10.0002L2.61916 10.9527V14.7618C2.61916 15.8143 3.47166 16.6668 4.52416 16.6668M6.24999 10.0002H6.25832M9.99999 10.0002H10.0083M13.75 10.0002H13.7583M6.66666 10.0002C6.66666 10.2303 6.48011 10.4168 6.24999 10.4168C6.01987 10.4168 5.83332 10.2303 5.83332 10.0002C5.83332 9.77004 6.01987 9.5835 6.24999 9.5835C6.48011 9.5835 6.66666 9.77004 6.66666 10.0002ZM10.4167 10.0002C10.4167 10.2303 10.2301 10.4168 9.99999 10.4168C9.76987 10.4168 9.58332 10.2303 9.58332 10.0002C9.58332 9.77004 9.76987 9.5835 9.99999 9.5835C10.2301 9.5835 10.4167 9.77004 10.4167 10.0002ZM14.1667 10.0002C14.1667 10.2303 13.9801 10.4168 13.75 10.4168C13.5199 10.4168 13.3333 10.2303 13.3333 10.0002C13.3333 9.77004 13.5199 9.5835 13.75 9.5835C13.9801 9.5835 14.1667 9.77004 14.1667 10.0002Z" stroke="#B2B3B2" stroke-width="1.5" stroke-linecap="round" stroke-linejoin="round"/>
</svg>
