<svg width="16" height="16" viewBox="0 0 16 16" fill="none" xmlns="http://www.w3.org/2000/svg">
<path d="M6.41932 2.33203H9.58076C10.0406 2.33203 10.3102 2.46589 10.5743 2.77619C10.5878 2.79212 10.8105 3.06904 11.053 3.36831C11.2954 3.66759 11.7892 3.9987 12.2425 3.9987H12.5455C14 3.9987 14.6667 4.88759 14.6667 6.36907V10.9617C14.6667 12.2708 13.5813 13.332 12.2425 13.332H3.75762C2.41874 13.332 1.33337 12.2708 1.33337 10.9617V6.36907C1.33337 4.88759 2.00004 3.9987 3.45459 3.9987H3.75762C4.21089 3.9987 4.70464 3.66759 4.94711 3.36831C5.18957 3.06904 5.41225 2.79212 5.42581 2.77619C5.68993 2.46589 5.95945 2.33203 6.41932 2.33203ZM4.66671 8.33203C4.66671 10.172 6.16004 11.6654 8.00004 11.6654C9.84004 11.6654 11.3334 10.172 11.3334 8.33203C11.3334 6.49203 9.84004 4.9987 8.00004 4.9987C6.16004 4.9987 4.66671 6.49203 4.66671 8.33203ZM5.73337 8.33204C5.73337 7.08006 6.74806 6.06537 8.00004 6.06537C9.25202 6.06537 10.2667 7.08006 10.2667 8.33204C10.2667 9.58401 9.25202 10.5987 8.00004 10.5987C6.74806 10.5987 5.73337 9.58401 5.73337 8.33204Z" fill="white"/>
</svg>
