<svg width="21" height="21" viewBox="0 0 21 21" fill="none" xmlns="http://www.w3.org/2000/svg">
<path d="M2.16675 7.48134C2.16675 7.18941 2.16675 7.04345 2.17893 6.9205C2.29642 5.73472 3.23447 4.79666 4.42026 4.67917C4.5432 4.66699 4.69705 4.66699 5.00473 4.66699C5.12329 4.66699 5.18257 4.66699 5.2329 4.66394C5.87559 4.62502 6.43837 4.21939 6.67854 3.62199C6.69734 3.57521 6.71492 3.52247 6.75008 3.41699C6.78524 3.31152 6.80282 3.25878 6.82163 3.21199C7.06179 2.61459 7.62457 2.20896 8.26726 2.17004C8.31759 2.16699 8.37318 2.16699 8.48436 2.16699H12.5158C12.627 2.16699 12.6826 2.16699 12.7329 2.17004C13.3756 2.20896 13.9384 2.61459 14.1785 3.21199C14.1973 3.25878 14.2149 3.31152 14.2501 3.41699C14.2852 3.52247 14.3028 3.57521 14.3216 3.62199C14.5618 4.21939 15.1246 4.62502 15.7673 4.66394C15.8176 4.66699 15.8769 4.66699 15.9954 4.66699C16.3031 4.66699 16.457 4.66699 16.5799 4.67917C17.7657 4.79666 18.7037 5.73472 18.8212 6.9205C18.8334 7.04345 18.8334 7.18941 18.8334 7.48134V14.0003C18.8334 15.4005 18.8334 16.1005 18.5609 16.6353C18.3212 17.1057 17.9388 17.4882 17.4684 17.7278C16.9336 18.0003 16.2335 18.0003 14.8334 18.0003H6.16675C4.76662 18.0003 4.06655 18.0003 3.53177 17.7278C3.06137 17.4882 2.67892 17.1057 2.43923 16.6353C2.16675 16.1005 2.16675 15.4005 2.16675 14.0003V7.48134Z" stroke="black" stroke-width="1.5" stroke-linecap="round" stroke-linejoin="round"/>
<path d="M10.5001 14.2503C12.341 14.2503 13.8334 12.7579 13.8334 10.917C13.8334 9.07604 12.341 7.58366 10.5001 7.58366C8.65913 7.58366 7.16675 9.07604 7.16675 10.917C7.16675 12.7579 8.65913 14.2503 10.5001 14.2503Z" stroke="black" stroke-width="1.5" stroke-linecap="round" stroke-linejoin="round"/>
</svg>
