<svg width="20" height="20" viewBox="0 0 20 20" fill="none" xmlns="http://www.w3.org/2000/svg">
<g clip-path="url(#clip0_1148_76889)">
<path d="M5.00008 12.5013L6.66675 14.168L10.4167 10.418M6.66675 6.66797V4.33464C6.66675 3.40121 6.66675 2.9345 6.8484 2.57798C7.00819 2.26438 7.26316 2.00941 7.57676 1.84962C7.93328 1.66797 8.39999 1.66797 9.33341 1.66797H15.6667C16.6002 1.66797 17.0669 1.66797 17.4234 1.84962C17.737 2.00941 17.992 2.26438 18.1518 2.57798C18.3334 2.9345 18.3334 3.40121 18.3334 4.33464V10.668C18.3334 11.6014 18.3334 12.0681 18.1518 12.4246C17.992 12.7382 17.737 12.9932 17.4234 13.153C17.0669 13.3346 16.6002 13.3346 15.6667 13.3346H13.3334M4.33341 18.3346H10.6667C11.6002 18.3346 12.0669 18.3346 12.4234 18.153C12.737 17.9932 12.992 17.7382 13.1518 17.4246C13.3334 17.0681 13.3334 16.6014 13.3334 15.668V9.33464C13.3334 8.40121 13.3334 7.9345 13.1518 7.57798C12.992 7.26438 12.737 7.00941 12.4234 6.84962C12.0669 6.66797 11.6002 6.66797 10.6667 6.66797H4.33341C3.39999 6.66797 2.93328 6.66797 2.57676 6.84962C2.26316 7.00941 2.00819 7.26438 1.8484 7.57798C1.66675 7.9345 1.66675 8.40121 1.66675 9.33464V15.668C1.66675 16.6014 1.66675 17.0681 1.8484 17.4246C2.00819 17.7382 2.26316 17.9932 2.57676 18.153C2.93328 18.3346 3.39999 18.3346 4.33341 18.3346Z" stroke="#B2B3B2" stroke-width="1.5" stroke-linecap="round" stroke-linejoin="round"/>
</g>
<defs>
<clipPath id="clip0_1148_76889">
<rect width="20" height="20" fill="white"/>
</clipPath>
</defs>
</svg>
