<svg width="24" height="24" viewBox="0 0 24 24" fill="none" xmlns="http://www.w3.org/2000/svg">
<path fill-rule="evenodd" clip-rule="evenodd" d="M2 12C2 6.47715 6.47715 2 12 2C14.6522 2 17.1957 3.05357 19.0711 4.92893C20.9464 6.8043 22 9.34784 22 12C22 17.5228 17.5228 22 12 22C6.47715 22 2 17.5228 2 12ZM10.71 15.71L16.71 9.71C17.1021 9.31788 17.1021 8.68212 16.71 8.29C16.3179 7.89788 15.6821 7.89788 15.29 8.29L10 13.59L8.71 12.29C8.45634 12.0363 8.08663 11.9373 7.74012 12.0301C7.39362 12.123 7.12297 12.3936 7.03012 12.7401C6.93728 13.0866 7.03634 13.4563 7.29 13.71L9.29 15.71C9.47777 15.8993 9.73336 16.0058 10 16.0058C10.2666 16.0058 10.5222 15.8993 10.71 15.71Z" fill="black"/>
</svg>
