<svg width="25" height="24" viewBox="0 0 25 24" fill="none" xmlns="http://www.w3.org/2000/svg">
<path d="M20.2071 5.70761C20.5976 5.31709 20.5976 4.68392 20.2071 4.29339C19.8166 3.90286 19.1834 3.90285 18.7929 4.29337L12.5 10.5861L6.20709 4.29337C5.81656 3.90285 5.1834 3.90286 4.79288 4.29339C4.40236 4.68392 4.40237 5.31709 4.79291 5.70761L11.0858 12.0002L4.79291 18.2929C4.40237 18.6834 4.40236 19.3166 4.79288 19.7071C5.1834 20.0976 5.81656 20.0976 6.20709 19.7071L12.5 13.4144L18.7929 19.7071C19.1834 20.0976 19.8166 20.0976 20.2071 19.7071C20.5976 19.3166 20.5976 18.6834 20.2071 18.2929L13.9142 12.0002L20.2071 5.70761Z" fill="#1F1F1F"/>
</svg>
