<svg width="20" height="21" viewBox="0 0 20 21" fill="none" xmlns="http://www.w3.org/2000/svg">
<path d="M16.4225 5.25658C16.7479 4.93115 16.7479 4.40351 16.4225 4.07807C16.0971 3.75263 15.5694 3.75262 15.244 4.07805L9.99992 9.32196L4.75583 4.07805C4.43039 3.75262 3.90275 3.75263 3.57732 4.07807C3.25189 4.40351 3.2519 4.93115 3.57734 5.25658L8.82139 10.5004L3.57734 15.7443C3.2519 16.0697 3.25189 16.5974 3.57732 16.9228C3.90275 17.2483 4.43039 17.2483 4.75583 16.9228L9.99992 11.6789L15.244 16.9228C15.5694 17.2483 16.0971 17.2483 16.4225 16.9228C16.7479 16.5974 16.7479 16.0697 16.4225 15.7443L11.1785 10.5004L16.4225 5.25658Z" fill="#1F1F1F"/>
</svg>
