<svg width="48" height="48" viewBox="0 0 48 48" fill="none" xmlns="http://www.w3.org/2000/svg">
<path d="M0.87868 0.87868C2.05025 -0.292893 3.94975 -0.292893 5.12132 0.87868L24 19.755L42.8787 0.87868C43.9601 -0.202772 45.6618 -0.285961 46.8387 0.629113L47.1213 0.87868C48.2929 2.05025 48.2929 3.94975 47.1213 5.12132L28.245 24L47.1213 42.8787C48.2028 43.9601 48.286 45.6618 47.3709 46.8387L47.1213 47.1213C45.9497 48.2929 44.0503 48.2929 42.8787 47.1213L24 28.245L5.12132 47.1213C4.03987 48.2028 2.33818 48.286 1.1613 47.3709L0.87868 47.1213C-0.292893 45.9497 -0.292893 44.0503 0.87868 42.8787L19.755 24L0.87868 5.12132C-0.202772 4.03987 -0.285961 2.33818 0.629113 1.1613L0.87868 0.87868Z" fill="#B2B3B2"/>
</svg>
