<svg width="20" height="20" viewBox="0 0 20 20" fill="none" xmlns="http://www.w3.org/2000/svg">
<rect width="20" height="20" rx="10" fill="#333433" fill-opacity="0.5"/>
<path d="M6.69918 12.788C6.49182 12.9954 6.48759 13.3636 6.70341 13.5794C6.92346 13.7952 7.29163 13.791 7.49475 13.5879L9.99996 11.0826L12.5009 13.5836C12.7125 13.7952 13.0765 13.7952 13.2923 13.5794C13.5081 13.3593 13.5081 12.9996 13.2965 12.788L10.7955 10.2871L13.2965 7.78186C13.5081 7.57028 13.5123 7.20634 13.2923 6.99052C13.0765 6.7747 12.7125 6.7747 12.5009 6.98629L9.99996 9.48727L7.49475 6.98629C7.29163 6.77893 6.91923 6.77047 6.70341 6.99052C6.48759 7.20634 6.49182 7.57874 6.69918 7.78186L9.20015 10.2871L6.69918 12.788Z" fill="white"/>
</svg>
