<svg width="16" height="16" viewBox="0 0 16 16" fill="none" xmlns="http://www.w3.org/2000/svg">
<path d="M13.3333 3.33203C13.5101 3.33203 13.6797 3.40227 13.8047 3.52729C13.9298 3.65232 14 3.82189 14 3.9987C14 4.17551 13.9298 4.34508 13.8047 4.4701C13.6797 4.59513 13.5101 4.66536 13.3333 4.66536H12.6667L12.6647 4.7127L12.0427 13.4267C12.0187 13.7631 11.8682 14.0779 11.6214 14.3077C11.3746 14.5376 11.0499 14.6654 10.7127 14.6654H5.28667C4.94943 14.6654 4.62471 14.5376 4.37792 14.3077C4.13114 14.0779 3.98061 13.7631 3.95667 13.4267L3.33467 4.71336C3.33366 4.69739 3.33321 4.68138 3.33333 4.66536H2.66667C2.48986 4.66536 2.32029 4.59513 2.19526 4.4701C2.07024 4.34508 2 4.17551 2 3.9987C2 3.82189 2.07024 3.65232 2.19526 3.52729C2.32029 3.40227 2.48986 3.33203 2.66667 3.33203H13.3333ZM9.33333 1.33203C9.51014 1.33203 9.67971 1.40227 9.80474 1.52729C9.92976 1.65232 10 1.82189 10 1.9987C10 2.17551 9.92976 2.34508 9.80474 2.4701C9.67971 2.59513 9.51014 2.66536 9.33333 2.66536H6.66667C6.48986 2.66536 6.32029 2.59513 6.19526 2.4701C6.07024 2.34508 6 2.17551 6 1.9987C6 1.82189 6.07024 1.65232 6.19526 1.52729C6.32029 1.40227 6.48986 1.33203 6.66667 1.33203H9.33333Z" fill="white"/>
</svg>
