<svg width="37" height="36" viewBox="0 0 37 36" fill="none" xmlns="http://www.w3.org/2000/svg">
<path d="M21.5 3.4043V9.60011C21.5 10.4402 21.5 10.8602 21.6635 11.1811C21.8073 11.4633 22.0368 11.6928 22.319 11.8366C22.6399 12.0001 23.0599 12.0001 23.9 12.0001H30.0958M24.5 19.5H12.5M24.5 25.5H12.5M15.5 13.5H12.5M21.5 3H13.7C11.1798 3 9.91965 3 8.95704 3.49047C8.11031 3.9219 7.4219 4.61031 6.99047 5.45704C6.5 6.41965 6.5 7.67976 6.5 10.2V25.8C6.5 28.3202 6.5 29.5804 6.99047 30.543C7.4219 31.3897 8.11031 32.0781 8.95704 32.5095C9.91965 33 11.1798 33 13.7 33H23.3C25.8202 33 27.0804 33 28.043 32.5095C28.8897 32.0781 29.5781 31.3897 30.0095 30.543C30.5 29.5804 30.5 28.3202 30.5 25.8V12L21.5 3Z" stroke="black" stroke-width="2.5" stroke-linecap="round" stroke-linejoin="round"/>
</svg>
