<svg width="19" height="18" viewBox="0 0 19 18" fill="none" xmlns="http://www.w3.org/2000/svg">
<path d="M9.49998 15.0012H16.25M2.75 15.0011H4.00591C4.37279 15.0011 4.55624 15.0011 4.72887 14.9597C4.88192 14.923 5.02824 14.8624 5.16245 14.7801C5.31382 14.6873 5.44354 14.5576 5.70296 14.2982L15.125 4.87615C15.7463 4.25483 15.7463 3.24747 15.125 2.62615C14.5037 2.00483 13.4963 2.00483 12.875 2.62615L3.45295 12.0482C3.19352 12.3076 3.0638 12.4373 2.97104 12.5887C2.8888 12.7229 2.82819 12.8692 2.79145 13.0223C2.75 13.1949 2.75 13.3784 2.75 13.7453V15.0011Z" stroke="#018A10" stroke-width="1.6" stroke-linecap="round" stroke-linejoin="round"/>
</svg>
