<svg width="21" height="20" viewBox="0 0 21 20" fill="none" xmlns="http://www.w3.org/2000/svg">
<path d="M12.1667 1.89258V5.3347C12.1667 5.80141 12.1667 6.03476 12.2575 6.21302C12.3374 6.36982 12.4649 6.49731 12.6217 6.5772C12.8 6.66803 13.0333 6.66803 13.5 6.66803H16.9422M10.5 15.0013V10.0013M8.00004 12.5013H13M12.1667 1.66797H7.83337C6.43324 1.66797 5.73318 1.66797 5.1984 1.94045C4.72799 2.18014 4.34554 2.56259 4.10586 3.03299C3.83337 3.56777 3.83337 4.26784 3.83337 5.66797V14.3346C3.83337 15.7348 3.83337 16.4348 4.10586 16.9696C4.34554 17.44 4.72799 17.8225 5.1984 18.0622C5.73318 18.3346 6.43324 18.3346 7.83337 18.3346H13.1667C14.5668 18.3346 15.2669 18.3346 15.8017 18.0622C16.2721 17.8225 16.6545 17.44 16.8942 16.9696C17.1667 16.4348 17.1667 15.7348 17.1667 14.3346V6.66797L12.1667 1.66797Z" stroke="#000100" stroke-width="1.5" stroke-linecap="round" stroke-linejoin="round"/>
</svg>
