<svg width="24" height="24" viewBox="0 0 24 24" fill="none" xmlns="http://www.w3.org/2000/svg">
<g clip-path="url(#clip0_1448_105547)">
<path d="M24 12.0949C24 11.2608 23.9339 10.4222 23.7928 9.60156H12.48V14.3268H18.9583C18.6895 15.8508 17.5848 17.3849 16.32 18.2416L16.5609 21.1216L20.16 21.1216C22.4296 18.9844 24 15.8282 24 12.0949Z" fill="#4285F4"/>
<path d="M12.1876 23.9984C15.4313 23.9984 18.1669 22.9468 20.1599 21.1315L16.3199 18.2384C15.2416 18.9628 13.8139 19.2988 12.192 19.2988C9.05433 19.2988 6.2345 17.2086 5.27994 14.3984H1.43994V17.4573C3.48164 21.4675 7.64017 23.9984 12.1876 23.9984Z" fill="#34A853"/>
<path d="M5.27977 14.4005C4.72959 12.94 4.96959 11.0609 5.51977 9.60047L5.75977 6.72047L1.43976 6.48047C-0.423135 9.80315 -0.465954 13.9578 1.39694 17.2805L5.27977 14.4005Z" fill="#FBBC04"/>
<path d="M12.4191 4.69791C14.1707 4.67174 15.8636 5.30849 17.1322 6.47732L20.6399 3.08859C18.4188 1.07368 15.4709 -0.0340905 12.4191 0.000799855C7.77373 0.000799855 3.52562 2.46761 1.43994 6.48L5.52101 9.6C6.49162 6.78697 9.21384 4.69791 12.4191 4.69791Z" fill="#EA4335"/>
</g>
<defs>
<clipPath id="clip0_1448_105547">
<rect width="24" height="24" fill="white"/>
</clipPath>
</defs>
</svg>
