<svg width="18" height="18" viewBox="0 0 18 18" fill="none" xmlns="http://www.w3.org/2000/svg">
<path d="M16.0155 1.98441C15.7417 1.71041 15.4167 1.49305 15.0589 1.34475C14.7011 1.19645 14.3176 1.12012 13.9303 1.12012C13.543 1.12012 13.1595 1.19645 12.8017 1.34475C12.4439 1.49305 12.1188 1.71041 11.8451 1.98441L2.9891 10.8404C2.56872 11.2615 2.26882 11.7874 2.1206 12.3637L1.14185 16.1729C1.11758 16.2677 1.11845 16.3672 1.14437 16.4615C1.1703 16.5558 1.22038 16.6418 1.28967 16.7109C1.35897 16.7799 1.44508 16.8297 1.53951 16.8553C1.63393 16.881 1.7334 16.8815 1.8281 16.8569L5.63623 15.8793C6.21266 15.7316 6.73877 15.4316 7.15948 15.0108L16.0155 6.15479C16.2895 5.88105 16.5068 5.55599 16.6551 5.1982C16.8034 4.84042 16.8798 4.45691 16.8798 4.0696C16.8798 3.68229 16.8034 3.29878 16.6551 2.94099C16.5068 2.5832 16.2895 2.25815 16.0155 1.98441ZM12.6405 2.77979C12.9826 2.43771 13.4465 2.24553 13.9303 2.24553C14.4141 2.24553 14.878 2.43771 15.2201 2.77979C15.5622 3.12187 15.7544 3.58582 15.7544 4.0696C15.7544 4.55337 15.5622 5.01733 15.2201 5.35941L14.3437 6.23579L11.7641 3.65616L12.6405 2.77979ZM10.9687 4.45154L13.5484 7.03116L6.3641 14.2154C6.08566 14.4936 5.73749 14.6918 5.3561 14.7892L2.46823 15.5317L3.21073 12.6438C3.30756 12.2622 3.50581 11.9139 3.78448 11.6358L10.9687 4.45154Z" fill="#B2B3B2"/>
</svg>
