<svg width="20" height="20" viewBox="0 0 20 20" fill="none" xmlns="http://www.w3.org/2000/svg">
<ellipse cx="9.99996" cy="7.50008" rx="0.833333" ry="0.833333" fill="#000100"/>
<path fill-rule="evenodd" clip-rule="evenodd" d="M9.99996 1.66675C13.2216 1.66675 15.8333 4.27842 15.8333 7.50008C15.95 10.1084 13.8583 13.5834 10.675 17.9834C10.5182 18.1999 10.2672 18.3281 9.99996 18.3281C9.73272 18.3281 9.48169 18.1999 9.32496 17.9834C6.14163 13.5751 4.04996 10.1001 4.16663 7.50008C4.16663 4.27842 6.7783 1.66675 9.99996 1.66675ZM7.49996 7.50008C7.49996 8.88079 8.61925 10.0001 9.99996 10.0001C10.663 10.0001 11.2989 9.73669 11.7677 9.26785C12.2366 8.79901 12.5 8.16312 12.5 7.50008C12.5 6.11937 11.3807 5.00008 9.99996 5.00008C8.61925 5.00008 7.49996 6.11937 7.49996 7.50008Z" fill="#000100"/>
</svg>
