<svg width="14" height="18" viewBox="0 0 14 18" fill="none" xmlns="http://www.w3.org/2000/svg">
<path fill-rule="evenodd" clip-rule="evenodd" d="M13.6666 7.33342C13.6666 9.76795 12.5459 12.1569 10.716 14.3287C9.3677 15.9289 7.66841 17.3334 6.99992 17.3334C6.33143 17.3334 4.63214 15.9289 3.28383 14.3287C1.45396 12.1569 0.333252 9.76795 0.333252 7.33342C0.333252 3.65152 3.31802 0.666748 6.99992 0.666748C10.6818 0.666748 13.6666 3.65152 13.6666 7.33342ZM4.55839 13.2548C5.16167 13.9708 5.82225 14.6205 6.43694 15.1286C6.68418 15.3329 6.99992 15.5621 6.99992 15.5621C6.99992 15.5621 7.35107 15.3037 7.56289 15.1286C8.17759 14.6205 8.83817 13.9708 9.44145 13.2548C11.041 11.3564 11.9999 9.31229 11.9999 7.33342C11.9999 4.57199 9.76134 2.33341 6.99992 2.33341C4.23849 2.33341 1.99992 4.57199 1.99992 7.33342C1.99992 9.31229 2.95883 11.3564 4.55839 13.2548ZM4.49992 7.33342C4.49992 5.9527 5.61921 4.83342 6.99992 4.83342C8.38063 4.83342 9.49992 5.9527 9.49992 7.33342C9.49992 8.71413 8.38063 9.83341 6.99992 9.83341C5.61921 9.83341 4.49992 8.71413 4.49992 7.33342ZM6.99992 6.50008C7.46016 6.50008 7.83325 6.87318 7.83325 7.33342C7.83325 7.79365 7.46016 8.16675 6.99992 8.16675C6.53968 8.16675 6.16659 7.79365 6.16659 7.33342C6.16659 6.87318 6.53968 6.50008 6.99992 6.50008Z" fill="#000100"/>
</svg>
