<svg width="540" height="540" viewBox="0 0 540 540" fill="none" xmlns="http://www.w3.org/2000/svg">
<path d="M268.898 539.989C230.061 539.396 199.218 506.984 199.218 468.142V393.714C199.218 385.386 205.969 378.635 214.297 378.635C222.625 378.635 229.376 385.386 229.376 393.714V468.454C229.376 490.637 246.842 509.303 269.019 509.828C291.864 510.369 310.622 491.942 310.622 469.217V335.996C310.622 321.982 321.982 310.622 335.996 310.622H468.455C490.638 310.622 509.304 293.155 509.828 270.978C510.368 248.133 491.942 229.376 469.217 229.376H331.947L227.975 333.348C223.182 338.14 216.811 340.779 210.033 340.779H71.8547C33.013 340.779 0.601021 309.936 0.00839505 271.099C-0.594808 231.569 31.386 199.218 70.7809 199.218H199.218V71.8554C199.218 33.0139 230.061 0.601744 268.898 0.00841488C308.428 -0.595508 340.779 31.3855 340.779 70.7809V144.05C340.779 152.378 334.028 159.129 325.701 159.129C317.373 159.129 310.622 152.378 310.622 144.05V71.5425C310.622 49.3595 293.155 30.6937 270.978 30.1693C248.133 29.6291 229.376 48.0559 229.376 70.781V204.002C229.376 218.015 218.015 229.376 204.002 229.376H71.5433C49.3603 229.376 30.6945 246.842 30.1694 269.019C29.6284 291.864 48.0555 310.622 70.7809 310.622H208.052L312.023 206.65C316.782 201.891 323.236 199.218 329.966 199.218H468.142C506.984 199.218 539.396 230.061 539.989 268.898C540.593 308.428 508.611 340.779 469.217 340.779H340.779V469.217C340.779 508.611 308.428 540.593 268.898 539.989Z" fill="url(#paint0_linear_51_5619)"/>
<defs>
<linearGradient id="paint0_linear_51_5619" x1="83.7411" y1="85.6586" x2="467.719" y2="465.34" gradientUnits="userSpaceOnUse">
<stop stop-color="#AAFFDD"/>
<stop offset="1" stop-color="#5DD148"/>
</linearGradient>
</defs>
</svg>
