<svg width="15" height="16" viewBox="0 0 15 16" fill="none" xmlns="http://www.w3.org/2000/svg">
<path fill-rule="evenodd" clip-rule="evenodd" d="M7.92832 0.929687C7.44016 0.929687 7.04443 1.32541 7.04443 1.81357V7.11602H1.74179C1.25364 7.11602 0.85791 7.51175 0.85791 7.99991C0.85791 8.48806 1.25364 8.88379 1.74179 8.88379H7.04443L7.04443 14.1879C7.04443 14.6761 7.44016 15.0718 7.92832 15.0718C8.41647 15.0718 8.8122 14.6761 8.8122 14.1879V8.88379H14.1162C14.6043 8.88379 15 8.48806 15 7.99991C15 7.51175 14.6043 7.11602 14.1162 7.11602L8.8122 7.11602V1.81357C8.8122 1.32542 8.41647 0.929687 7.92832 0.929687Z" fill="#018A10"/>
</svg>
