<svg width="151" height="164" viewBox="0 0 151 164" fill="none" xmlns="http://www.w3.org/2000/svg">
<path d="M138.586 20.7031H18.1788C11.7497 20.7031 6.73389 25.719 6.73389 32.1481V152.556C6.73389 158.986 11.7497 164.001 18.1788 164.001H138.586C145.015 164.001 150.031 158.986 150.031 152.556V32.1481C150.031 25.9961 144.988 20.7031 138.586 20.7031ZM146.401 32.1481V48.6367H90.5342V24.0563H138.586C143.048 24.3334 146.401 27.6865 146.401 32.1481ZM10.3364 48.6367V38.0231H87.1811V48.6367H10.3364ZM18.1511 24.3334H87.1534V34.9471H10.3087V32.4253C10.3087 27.6865 13.9389 24.3334 18.1234 24.3334H18.1511ZM138.559 160.399H18.1788C13.7172 160.399 10.3641 156.769 10.3641 152.584V52.267H146.706V152.584C146.429 157.046 143.076 160.399 138.614 160.399H138.559Z" fill="#5DD148"/>
<path d="M113.452 32.7305C115.447 32.7305 117.082 34.3655 117.082 36.3607C117.082 38.356 115.447 39.991 113.452 39.991C111.457 39.991 109.822 38.356 109.822 36.3607C109.822 34.3655 111.457 32.7305 113.452 32.7305Z" fill="#5DD148"/>
<path d="M123.788 32.7305C125.784 32.7305 127.419 34.3655 127.419 36.3607C127.419 38.356 125.784 39.991 123.788 39.991C121.793 39.991 120.158 38.356 120.158 36.3607C120.158 34.3655 121.793 32.7305 123.788 32.7305Z" fill="#5DD148"/>
<path d="M134.402 32.7305C136.397 32.7305 138.032 34.3655 138.032 36.3607C138.032 38.356 136.397 39.991 134.402 39.991C132.407 39.991 130.772 38.356 130.772 36.3607C130.772 34.3655 132.407 32.7305 134.402 32.7305Z" fill="#5DD148"/>
<path d="M91.0886 134.125C92.0031 134.125 92.7513 134.873 92.7513 135.815C92.7513 136.758 92.0031 137.478 91.0886 137.478C90.1741 137.478 89.3982 136.73 89.3982 135.815C89.3982 134.901 90.1464 134.125 91.0886 134.125Z" fill="#5DD148"/>
<path d="M70.1384 134.125C71.0529 134.125 71.8011 134.873 71.8011 135.815C71.8011 136.758 71.0529 137.478 70.1384 137.478C69.2239 137.478 68.448 136.73 68.448 135.815C68.448 134.901 69.1962 134.125 70.1384 134.125Z" fill="#5DD148"/>
<path d="M104.501 139.727C105.415 139.727 106.191 140.475 106.191 141.417C106.191 142.359 105.443 143.08 104.501 143.08C103.559 143.08 102.838 142.331 102.838 141.417C102.838 140.502 103.586 139.727 104.501 139.727Z" fill="#5DD148"/>
<path d="M25.9935 17.3445C28.7924 17.3445 31.3142 15.0998 31.3142 12.0238C31.3142 9.22491 29.0695 6.70312 25.9935 6.70312C22.9175 6.70312 20.6729 9.22491 20.6729 12.0238C20.6729 14.8227 23.1946 17.3445 25.9935 17.3445ZM25.9935 10.3611C26.8249 10.3611 27.6562 11.1925 27.6562 12.0515C27.6562 12.9106 26.8249 13.7142 25.9935 13.7142C25.1622 13.7142 24.3308 12.8829 24.3308 12.0515C24.3308 11.2202 25.1622 10.3611 25.9935 10.3611Z" fill="#5DD148"/>
<path d="M137.755 17.3477C142.494 17.3477 146.429 13.4403 146.429 8.67383C146.429 3.90738 142.522 0 137.755 0C132.989 0 129.082 3.90738 129.082 8.67383C129.082 13.4403 132.989 17.3477 137.755 17.3477ZM137.755 3.38085C140.554 3.38085 143.076 5.62552 143.076 8.70154C143.076 11.5004 140.831 14.0222 137.755 14.0222C134.956 14.0222 132.435 11.7776 132.435 8.70154C132.435 5.62552 134.956 3.38085 137.755 3.38085Z" fill="#5DD148"/>
<path d="M2.52177 19.0352C3.90736 19.0352 5.04354 20.1713 5.04354 21.5569C5.04354 22.9425 3.90736 24.0787 2.52177 24.0787C1.13618 24.0787 0 22.9425 0 21.5569C0 20.1713 1.13618 19.0352 2.52177 19.0352Z" fill="#5DD148"/>
<path d="M51.4053 5.07031C52.7909 5.07031 53.9271 6.2065 53.9271 7.5921C53.9271 8.97769 52.7909 10.1139 51.4053 10.1139C50.0197 10.1139 48.8835 8.97769 48.8835 7.5921C48.8835 6.2065 50.0197 5.07031 51.4053 5.07031Z" fill="#5DD148"/>
<path d="M88.0127 12.0547C89.3983 12.0547 90.5345 13.1909 90.5345 14.5765C90.5345 15.9621 89.3983 17.0983 88.0127 17.0983C86.6271 17.0983 85.491 15.9621 85.491 14.5765C85.491 13.1909 86.6271 12.0547 88.0127 12.0547Z" fill="#5DD148"/>
<path d="M119.576 5.07031C120.962 5.07031 122.098 6.2065 122.098 7.5921C122.098 8.97769 120.962 10.1139 119.576 10.1139C118.191 10.1139 117.055 8.97769 117.055 7.5921C117.055 6.2065 118.191 5.07031 119.576 5.07031Z" fill="#5DD148"/>
<path d="M134.402 62.5977H22.6407C21.8094 62.5977 20.978 63.429 20.978 64.2604V148.089C20.978 148.92 21.8094 149.752 22.6407 149.752H134.402C135.234 149.752 136.065 148.92 136.065 148.089V64.2604C136.065 63.429 135.234 62.5977 134.402 62.5977ZM24.3312 73.2113H36.9123V77.3958C36.9123 80.749 34.1134 83.5479 30.7603 83.5479C27.4072 83.5479 24.6083 80.749 24.6083 77.3958C24.3311 77.3958 24.3312 73.2113 24.3312 73.2113ZM40.2654 73.2113H52.8465V77.3958C52.8465 80.749 50.0477 83.5479 46.6945 83.5479C43.3414 83.5479 40.5425 80.749 40.5425 77.3958L40.2654 73.2113ZM56.1997 73.2113H68.7808V77.3958C68.7808 80.749 65.9819 83.5479 62.6288 83.5479C59.2757 83.5479 56.4768 80.749 56.4768 77.3958V73.2113H56.1997ZM72.1339 73.2113H84.715V77.3958C84.715 80.749 81.9162 83.5479 78.563 83.5479C75.2099 83.5479 72.411 80.749 72.411 77.3958V73.2113H72.1339ZM88.0682 73.2113H100.649V77.3958C100.649 80.749 97.8504 83.5479 94.4973 83.5479C91.1442 83.5479 88.3453 80.749 88.3453 77.3958V73.2113H88.0682ZM104.28 73.2113H116.861V77.3958C116.861 80.749 114.062 83.5479 110.709 83.5479C107.356 83.5479 104.557 80.749 104.557 77.3958L104.28 73.2113ZM120.214 73.2113H132.795V77.3958C132.795 80.749 129.996 83.5479 126.643 83.5479C123.29 83.5479 120.491 80.749 120.491 77.3958L120.214 73.2113ZM132.518 69.5811H119.937V65.9508H132.518V69.5811ZM116.584 69.5811H104.002V65.9508H116.584V69.5811ZM100.649 69.5811H88.0682V65.9508H100.649V69.5811ZM84.715 69.5811H72.1339V65.9508H84.715V69.5811ZM68.7808 69.5811H56.1997V65.9508H68.7808V69.5811ZM52.8465 69.5811H40.2654V65.9508H52.8465V69.5811ZM36.9123 66.2279V69.8582H24.3312V66.2279H36.9123ZM24.3312 146.426V127.139H32.9772C33.8086 127.139 34.6676 126.307 34.6676 125.448C34.6676 124.589 33.8363 123.786 32.9772 123.786H24.3312V120.155H32.9772C33.8086 120.155 34.6676 119.324 34.6676 118.493C34.6676 117.661 33.8363 116.802 32.9772 116.802H24.3312V113.172H32.9772C33.8086 113.172 34.6676 112.341 34.6676 111.481C34.6676 110.622 33.8363 109.819 32.9772 109.819H24.3312V106.189H32.9772C33.8086 106.189 34.6676 105.357 34.6676 104.526C34.6676 103.694 33.8363 102.863 32.9772 102.863H24.3312V99.2328H32.9772C33.8086 99.2328 34.6676 98.4015 34.6676 97.5701C34.6676 96.7387 33.8363 95.8797 32.9772 95.8797H24.3312V84.9889C28.7927 88.6191 35.2219 87.7878 38.575 83.0213C42.4823 88.6192 50.6019 88.6192 54.5092 83.0213C58.4166 88.6192 66.5361 88.6192 70.4435 83.0213C74.3509 88.6192 82.4704 88.6192 86.3778 83.0213C90.2851 88.6192 98.4046 88.6192 102.312 83.0213C106.219 88.6192 114.339 88.6192 118.246 83.0213C121.599 87.7601 128.028 88.6191 132.49 84.9889V95.8797H123.816C122.985 95.8797 122.154 96.711 122.154 97.5701C122.154 98.4292 122.985 99.2328 123.816 99.2328H132.49V102.863H123.816C122.985 102.863 122.154 103.694 122.154 104.526C122.154 105.357 122.985 106.189 123.816 106.189H132.49V109.819H123.816C122.985 109.819 122.154 110.65 122.154 111.481C122.154 112.313 122.985 113.172 123.816 113.172H132.49V116.802H123.816C122.985 116.802 122.154 117.634 122.154 118.493C122.154 119.352 122.985 120.155 123.816 120.155H132.49V123.786H123.816C122.985 123.786 122.154 124.617 122.154 125.448C122.154 126.28 122.985 127.139 123.816 127.139H132.49V146.426H24.3589H24.3312Z" fill="#5DD148"/>
<path d="M80.2545 112.98H89.0011C91.0421 112.98 92.0627 112.98 92.8423 113.377C93.528 113.727 94.0855 114.284 94.4349 114.97C94.8321 115.749 94.8321 116.77 94.8321 118.811V131.202M80.2545 131.202V104.233C80.2545 102.192 80.2545 101.172 79.8573 100.392C79.5079 99.7065 78.9503 99.149 78.2646 98.7996C77.485 98.4023 76.4645 98.4023 74.4234 98.4023H67.8635C65.8224 98.4023 64.8019 98.4023 64.0223 98.7996C63.3366 99.149 62.779 99.7065 62.4296 100.392C62.0324 101.172 62.0324 102.192 62.0324 104.233V131.202M96.6544 131.202H60.2102M68.4101 105.691H73.8768M68.4101 112.98H73.8768M68.4101 120.269H73.8768" stroke="#5DD148" stroke-width="2.73331" stroke-linecap="round" stroke-linejoin="round"/>
</svg>
