<svg
  width="164"
  height="164"
  viewBox="0 0 164 164"
  fill="none"
  xmlns="http://www.w3.org/2000/svg"
>
    <path d="M118.779 32.6875C120.885 32.6875 122.582 34.3079 122.582 36.3195C122.582 38.3311 120.885 39.9516 118.779 39.9516C116.672 39.9516 114.976 38.3311 114.976 36.3195C114.976 34.3079 116.672 32.6875 118.779 32.6875Z" fill="#5DD148"/>
    <path d="M129.896 32.6875C132.002 32.6875 133.699 34.3079 133.699 36.3195C133.699 38.3311 132.002 39.9516 129.896 39.9516C127.789 39.9516 126.093 38.3311 126.093 36.3195C126.093 34.3079 127.789 32.6875 129.896 32.6875Z" fill="#5DD148"/>
    <path d="M140.721 32.6875C142.827 32.6875 144.524 34.3079 144.524 36.3195C144.524 38.3311 142.827 39.9516 140.721 39.9516C138.614 39.9516 136.917 38.3311 136.917 36.3195C136.917 34.3079 138.614 32.6875 140.721 32.6875Z" fill="#5DD148"/>
    <path d="M27.5005 17.3237C30.4261 17.3237 33.0591 15.0886 33.0591 12.0154C33.0591 9.22151 30.7186 6.70703 27.5005 6.70703C24.2824 6.70703 21.9419 9.22151 21.9419 12.0154C21.9419 14.8092 24.2824 17.3237 27.5005 17.3237ZM27.5005 10.3391C28.3782 10.3391 29.2559 11.1772 29.2559 12.0154C29.2559 12.8535 28.3782 13.6917 27.5005 13.6917C26.6228 13.6917 25.7452 12.8535 25.7452 12.0154C25.4526 11.1772 26.3303 10.3391 27.5005 10.3391Z" fill="#5DD148"/>
    <path d="M144.524 17.322C149.497 17.322 153.593 13.4106 153.593 8.66099C153.593 3.91141 149.497 0 144.524 0C139.55 0 135.454 3.91141 135.454 8.66099C135.162 13.4106 139.257 17.322 144.524 17.322ZM144.524 3.35264C147.449 3.35264 150.082 5.58773 150.082 8.66099C150.082 11.4549 147.742 13.9693 144.524 13.9693C141.598 13.9693 138.965 11.7342 138.965 8.66099C138.965 5.58773 141.305 3.35264 144.524 3.35264Z" fill="#5DD148"/>
    <path d="M2.63303 19C4.09582 19 5.26605 20.1175 5.26605 21.5145C5.26605 22.9114 4.09582 24.029 2.63303 24.029C1.17024 24.029 0 22.9114 0 21.5145C0 20.1175 1.17024 19 2.63303 19Z" fill="#5DD148"/>
    <path d="M53.8308 5.02734C55.2936 5.02734 56.4638 6.14489 56.4638 7.54182C56.4638 8.93876 55.2936 10.0563 53.8308 10.0563C52.368 10.0563 51.1978 8.93876 51.1978 7.54182C51.1978 6.14489 52.368 5.02734 53.8308 5.02734Z" fill="#5DD148"/>
    <path d="M92.1562 12.0195C93.619 12.0195 94.7892 13.1371 94.7892 14.534C94.7892 15.9309 93.619 17.0485 92.1562 17.0485C90.6934 17.0485 89.5232 15.9309 89.5232 14.534C89.5232 13.1371 90.6934 12.0195 92.1562 12.0195Z" fill="#5DD148"/>
    <path d="M125.215 5.02734C126.677 5.02734 127.848 6.14489 127.848 7.54182C127.848 8.93876 126.677 10.0563 125.215 10.0563C123.752 10.0563 122.582 8.93876 122.582 7.54182C122.582 6.14489 123.752 5.02734 125.215 5.02734Z" fill="#5DD148"/>
    <path d="M163.832 107.006L162.37 89.1256C162.37 88.2874 161.492 87.4492 160.614 87.4492C159.444 87.4492 158.274 87.4492 157.104 87.1699V32.1306C157.104 25.7047 151.838 20.6758 145.109 20.6758H19.3086C12.5798 20.6758 7.31372 25.7047 7.31372 32.1306V152.546C7.31372 158.972 12.5798 164.001 19.3086 164.001H145.401C152.13 164.001 157.396 158.972 157.396 152.546V129.637C162.077 123.211 164.71 115.109 163.832 107.006ZM160.322 107.286C161.199 117.623 156.518 127.681 147.742 133.827L129.603 146.12L111.464 133.827C102.688 127.681 98.0068 117.623 98.8845 107.286L100.347 91.3607C115.268 90.5225 125.8 81.3027 129.603 77.6707C133.406 81.3027 144.231 89.9637 159.151 91.0813C160.614 112.315 160.029 106.168 160.322 107.286ZM138.965 80.1852C133.991 76.8325 131.066 73.7593 131.066 73.7593C130.188 72.9211 129.018 72.9211 128.14 73.7593C128.14 73.7593 116.145 87.4492 98.5919 87.7286C97.7142 87.7286 96.8366 88.5668 96.8366 89.4049L95.0812 107.006C93.911 118.461 99.4696 129.916 109.124 136.621L123.752 146.4H25.4523V66.2158H138.672V80.1852H138.965ZM138.965 143.885V146.4H135.162L138.965 143.885ZM153.593 32.1306V48.6145H95.0812V24.0284H145.401C149.79 24.3078 153.593 27.6605 153.593 32.1306ZM10.8244 48.6145V37.9978H91.278V48.6145H10.8244ZM19.3086 24.3078H91.5705V34.9245H10.8244V32.41C10.8244 27.6604 14.6277 24.3078 19.3086 24.3078ZM145.109 160.369H19.3086C14.6277 160.369 11.117 156.737 11.117 152.546V52.2465H153.593V86.6111C149.497 85.7729 145.694 84.0966 142.476 82.4203V64.5395C142.476 63.7014 141.598 62.8632 140.72 62.8632H23.697C22.8193 62.8632 21.9416 63.7014 21.9416 64.5395V148.356C21.9416 149.194 22.8193 150.032 23.697 150.032H140.72C141.598 150.032 142.476 149.194 142.476 148.356V141.65L149.79 136.621C151.252 135.783 152.423 134.666 153.593 133.548V152.546C153.593 157.017 149.79 160.369 145.109 160.369Z" fill="#5DD148"/>
    <path d="M128.14 94.9938C118.194 94.9938 110.294 102.537 110.294 112.036C110.294 121.536 118.194 129.079 128.14 129.079C139.55 129.079 148.327 118.742 145.401 107.846L150.082 103.375C152.13 101.42 152.13 98.067 150.082 96.1113C148.034 94.1556 144.524 94.1556 142.476 96.1113L139.258 99.1846C136.04 96.3907 132.236 94.9938 128.14 94.9938ZM128.14 125.447C120.241 125.447 114.098 119.3 114.098 112.036C114.098 104.772 120.534 98.6258 128.14 98.6258C131.359 98.6258 134.284 99.7433 136.625 101.42L129.603 108.125L128.433 107.007C127.263 105.89 126.093 105.61 124.63 105.61C121.704 105.61 119.071 107.846 119.071 110.919C119.071 112.316 119.656 113.713 120.534 114.551L128.14 121.815C128.726 122.374 129.896 122.374 130.774 121.815L142.183 110.919C142.768 118.742 136.332 125.447 128.14 125.447ZM144.816 98.3464C145.109 98.067 145.694 97.7876 145.987 97.7876C147.449 97.7876 148.327 99.7433 147.157 100.861L129.311 117.903L122.874 111.757C121.704 110.639 122.582 108.684 124.045 108.684C124.63 108.684 124.922 108.963 125.215 109.242L127.848 111.757C128.433 112.316 129.603 112.316 130.481 111.757C145.694 97.2289 130.188 112.036 140.135 102.537L144.816 98.3464Z" fill="#5DD148"/>
    <path d="M34.8141 100.862C34.8141 123.772 34.8141 122.095 34.8141 122.375C35.3992 127.124 39.495 130.756 44.4685 130.756H72.5541C77.5276 130.756 81.6234 127.124 82.2085 122.375V100.862C85.4266 100.024 87.7671 97.2299 87.7671 94.1566C87.7671 90.2452 84.549 87.1719 80.4531 87.1719H76.6499V80.1873C76.6499 77.3934 74.3094 74.8789 71.0913 74.8789C67.8731 74.8789 65.5327 77.114 65.5327 80.1873V87.1719H50.9048V80.1873C50.9048 77.3934 48.5643 74.8789 45.3462 74.8789C42.128 74.8789 40.0801 77.114 40.0801 80.1873V87.1719H36.2768C32.181 87.1719 28.9629 90.2452 28.9629 94.1566C29.2554 97.2299 31.5959 100.024 34.8141 100.862ZM78.6978 120.419H74.8945V104.773C74.8945 103.935 74.0169 103.097 73.1392 103.097C72.2615 103.097 71.3838 103.935 71.3838 104.773V120.419H67.5806V104.773C67.5806 103.935 66.7029 103.097 65.8252 103.097C64.9476 103.097 64.0699 103.935 64.0699 104.773V120.419H60.2666V104.773C60.2666 103.935 59.389 103.097 58.5113 103.097C57.6336 103.097 56.7559 103.935 56.7559 104.773V120.419H52.9527V104.773C52.9527 103.935 52.075 103.097 51.1973 103.097C50.3196 103.097 49.442 103.935 49.442 104.773V120.419H45.6387V104.773C45.6387 103.935 44.761 103.097 43.8834 103.097C43.0057 103.097 42.128 103.935 42.128 104.773V120.419H38.3248V101.141H78.6978V120.419ZM72.5541 127.404H44.4685C42.128 127.404 39.7875 126.007 38.9099 123.772H78.1127C77.235 125.727 74.8945 127.404 72.5541 127.404ZM69.3359 80.1873C69.3359 79.3491 70.2136 78.5109 71.0913 78.5109C71.969 78.5109 72.8466 79.3491 72.8466 80.1873V90.804C72.8466 91.6421 71.969 92.4803 71.0913 92.4803C70.2136 92.4803 69.3359 91.6421 69.3359 90.804V80.1873ZM43.8834 80.1873C43.8834 79.3491 44.761 78.5109 45.6387 78.5109C46.5164 78.5109 47.3941 79.3491 47.3941 80.1873V90.804C47.3941 91.6421 46.5164 92.4803 45.6387 92.4803C44.761 92.4803 43.8834 91.6421 43.8834 90.804V80.1873ZM36.5694 90.5246H40.0801C40.0801 93.3184 42.4206 95.8329 45.6387 95.8329C48.8569 95.8329 51.1973 93.5978 51.1973 90.5246H65.8252C65.8252 93.3184 68.1657 95.8329 71.3838 95.8329C74.602 95.8329 76.9424 93.5978 76.9424 90.5246H80.7457C82.7936 90.5246 84.549 92.2009 84.549 94.1566C84.549 96.1123 82.7936 97.7886 80.7457 97.7886H36.862C34.8141 97.7886 33.0587 96.1123 33.0587 94.1566C32.7661 92.2009 34.5215 90.5246 36.5694 90.5246Z" fill="#5DD148"/>
    </svg>
