<svg width="152" height="164" viewBox="0 0 152 164" fill="none" xmlns="http://www.w3.org/2000/svg">
<path d="M7.80078 17.5547C9.18381 17.5547 10.3179 18.6888 10.3179 20.0718C10.3179 21.4548 9.18381 22.5889 7.80078 22.5889C6.41775 22.5889 5.28369 21.4548 5.28369 20.0718C5.28369 18.6888 6.41775 17.5547 7.80078 17.5547Z" fill="#5DD148"/>
<path d="M20.082 78.6523C21.4651 78.6523 22.5992 79.7864 22.5992 81.1694C22.5992 82.5525 21.4651 83.6866 20.082 83.6866C18.699 83.6866 17.5649 82.5525 17.5649 81.1694C17.5649 79.7864 18.699 78.6523 20.082 78.6523Z" fill="#5DD148"/>
<path d="M140.267 17.5547C141.65 17.5547 142.784 18.6888 142.784 20.0718C142.784 21.4548 141.65 22.5889 140.267 22.5889C138.884 22.5889 137.75 21.4548 137.75 20.0718C137.75 18.6888 138.884 17.5547 140.267 17.5547Z" fill="#5DD148"/>
<path d="M148.925 75.0117C150.308 75.0117 151.442 76.1458 151.442 77.5288C151.442 78.9119 150.308 80.046 148.925 80.046C147.542 80.046 146.408 78.9119 146.408 77.5288C146.408 76.1458 147.542 75.0117 148.925 75.0117Z" fill="#5DD148"/>
<path d="M145.578 144.723C146.961 144.723 148.095 145.857 148.095 147.24C148.095 148.623 146.961 149.757 145.578 149.757C144.195 149.757 143.061 148.623 143.061 147.24C143.061 145.857 144.195 144.723 145.578 144.723Z" fill="#5DD148"/>
<path d="M14.7703 143.055C16.1533 143.055 17.2874 144.189 17.2874 145.572C17.2874 146.955 16.1533 148.089 14.7703 148.089C13.3873 148.089 12.2532 146.955 12.2532 145.572C12.2532 144.189 13.3873 143.055 14.7703 143.055Z" fill="#5DD148"/>
<path d="M8.6578 101.211C3.92783 101.211 0 105.111 0 109.869C0 114.626 3.90017 118.499 8.6578 118.499C13.4154 118.499 17.3156 114.599 17.3156 109.869C17.3156 105.139 13.4154 101.211 8.6578 101.211ZM8.6578 115.152C5.86407 115.152 3.34692 112.911 3.34692 109.841C3.34692 107.047 5.58746 104.53 8.6578 104.53C11.7281 104.53 13.9686 106.771 13.9686 109.841C13.9686 112.635 11.7281 115.152 8.6578 115.152Z" fill="#5DD148"/>
<path d="M137.778 92.5859C133.878 92.5859 130.807 95.6563 130.807 99.5564C130.807 103.457 133.878 106.527 137.778 106.527C141.678 106.527 144.748 103.457 144.748 99.5564C144.748 95.6563 141.678 92.5859 137.778 92.5859ZM137.778 102.903C135.814 102.903 134.154 101.216 134.154 99.2798C134.154 97.3436 135.814 95.6563 137.778 95.6563C139.742 95.6563 141.401 97.3159 141.401 99.2798C141.125 101.244 139.742 102.903 137.778 102.903Z" fill="#5DD148"/>
<path d="M140.267 59.3828C146.408 59.3828 151.691 54.3762 151.691 47.959C151.691 41.5417 146.656 36.5352 140.267 36.5352C133.877 36.5352 128.843 41.5417 128.843 47.959C129.12 54.3762 134.154 59.3828 140.267 59.3828ZM140.267 40.131C144.72 40.131 148.067 43.7546 148.067 47.9313C148.067 52.3847 144.444 55.7316 140.267 55.7316C136.09 55.7316 132.467 52.3847 132.467 47.9313C132.467 43.7546 136.09 40.131 140.267 40.131Z" fill="#5DD148"/>
<path d="M106.244 0H43.7867C35.1289 0 27.8818 6.97048 27.8818 15.9049V148.095C27.8818 156.753 34.8523 164 43.7867 164H106.244C114.902 164 122.149 157.03 122.149 148.095V15.9049C122.149 7.24709 114.902 0 106.244 0ZM118.526 148.095C118.526 154.789 112.938 160.376 106.244 160.376H43.7867C37.0928 160.376 31.5054 154.789 31.5054 148.095V15.9049C31.5054 9.21099 37.0928 3.62354 43.7867 3.62354H106.244C112.938 3.62354 118.526 9.21099 118.526 15.9049V148.095Z" fill="#5DD148"/>
<path d="M109.868 17.5547H40.1355C39.3057 17.5547 38.4482 18.3845 38.4482 19.2143V144.157C38.4482 149.164 42.625 153.368 47.6592 153.368H102.593C107.6 153.368 111.804 149.192 111.804 144.157V19.2143C111.528 18.3845 110.698 17.5547 109.84 17.5547H109.868ZM41.8228 27.8721H49.8997V37.6363C49.8997 39.8768 47.9359 41.813 45.723 41.813C43.5102 41.813 41.5463 39.8491 41.5463 37.6363V27.8721H41.8228ZM88.4034 27.8721H96.4803V37.6363C96.4803 39.8768 94.5164 41.813 92.3035 41.813C90.0907 41.813 88.1268 39.8491 88.1268 37.6363V27.8721H88.4034ZM76.7029 27.8721H84.7798V37.6363C84.7798 39.8768 82.8159 41.813 80.6031 41.813C78.3902 41.813 76.4263 39.8491 76.4263 37.6363V27.8721H76.7029ZM65.0025 27.8721H73.0794V37.6363C73.0794 39.8768 71.1155 41.813 68.9026 41.813C66.6898 41.813 64.7259 39.8491 64.7259 37.6363V27.8721H65.0025ZM53.5786 27.8721H61.6555V37.6363C61.6555 39.8768 59.6916 41.813 57.4788 41.813C55.2659 41.813 53.302 39.8491 53.302 37.6363L53.5786 27.8721ZM51.6147 42.6429C54.6851 46.2664 60.2725 46.2664 63.3152 42.6429C66.3855 46.2664 71.9729 46.2664 75.0156 42.6429C78.0859 46.2664 83.6734 46.2664 86.7161 42.6429C89.7864 46.2664 95.3739 46.2664 98.4165 42.6429C100.934 45.7132 105.11 46.2664 108.181 44.3302V49.0602H41.7952V44.3302C44.8655 46.2941 49.3189 45.7132 51.5594 42.6429H51.6147ZM104.032 41.813C101.791 41.813 99.8549 39.8491 99.8549 37.6363V27.8721H107.932V37.6363C108.208 40.1534 106.244 41.813 104.032 41.813ZM108.208 24.5251H100.131V20.9016H108.208V24.5251ZM96.5079 24.5251H88.431V20.9016H96.5079V24.5251ZM84.8075 24.5251H76.7306V20.9016H84.8075V24.5251ZM73.3836 24.5251H65.3067V20.9016H73.3836V24.5251ZM61.6832 24.5251H53.6063V20.9016H61.6832V24.5251ZM49.9827 24.5251H41.9058V20.9016H49.9827V24.5251ZM102.4 150.021H47.4656C44.3953 150.021 41.8782 147.504 41.8782 144.434V117.105H92.3588C93.1887 117.105 94.0185 116.276 94.0185 115.446C94.0185 114.616 93.1887 113.758 92.3588 113.758H90.1183C91.5014 111.518 91.5014 108.752 90.1183 106.788H94.0185C96.8122 106.788 99.0251 104.547 99.0251 101.781C99.0251 99.2642 97.3377 97.328 94.8483 96.7748V70.5525H102.649C103.478 70.5525 104.308 69.7227 104.308 68.8652C104.308 68.0077 103.478 67.2055 102.649 67.2055H93.4376C92.6078 67.2055 91.778 68.0354 91.778 68.8652V74.176H85.6373V63.582C85.6373 62.7522 84.8075 61.9223 83.9777 61.9223H64.7259C63.896 61.9223 63.0662 62.7522 63.0662 63.582V68.0354H52.4722C51.6424 68.0354 50.7849 68.8652 50.7849 69.7227V73.3462H47.7146C46.6081 73.3462 45.7507 74.7292 46.0273 75.8633L47.9912 80.3167L54.1318 96.2216H53.0254C52.1956 96.2216 51.3658 97.0514 51.3658 97.9089C51.3658 98.7663 52.1956 99.5685 53.0254 99.5685H94.2951C95.1249 99.5685 95.9547 100.398 95.9547 101.228C95.9547 102.058 95.1249 102.915 94.2951 102.915H48.8487C48.0189 102.915 47.1614 103.745 47.1614 104.575C47.1614 105.405 47.9912 106.262 48.8487 106.262H57.2022C56.0957 108.503 55.8191 110.992 57.2022 113.233H41.8505V52.4348H108.236V144.462C108.236 147.532 105.442 150.049 102.372 150.049L102.4 150.021ZM63.0662 106.235C65.0301 106.235 66.4132 107.618 66.4132 109.582C66.4132 111.546 64.7259 112.929 63.0662 112.929C61.1023 112.929 59.7193 111.241 59.7193 109.582C59.7193 107.618 61.3789 106.235 63.0662 106.235ZM69.2069 106.235H78.1413C77.0349 108.475 76.7582 110.965 78.1413 113.205H68.9303C70.5899 110.965 70.3133 108.475 69.2069 106.235ZM87.6012 109.858C87.6012 111.822 85.9416 113.205 84.2543 113.205C82.2904 113.205 80.9073 111.518 80.9073 109.858C80.9073 107.894 82.567 106.511 84.2543 106.511C84.8075 106.235 87.6012 107.618 87.6012 109.858ZM82.0138 73.3186H73.356V69.695C73.356 68.8652 72.5262 68.0077 71.6963 68.0077H66.3855V64.3841H82.0138V73.3186ZM69.7324 71.6589V73.3186H54.1042V71.6589H69.7324ZM91.778 76.6655V79.7358H75.0433C74.7667 78.906 73.6602 78.3528 72.8028 78.6294C72.2495 78.906 71.6963 79.1826 71.6963 79.7358H69.1792C68.3494 79.7358 67.5196 80.5656 67.5196 81.3955C67.5196 82.2253 68.3494 83.0551 69.1792 83.0551H72.5262L73.0794 85.019H64.7259C63.896 85.019 63.0662 85.8488 63.0662 86.6786C63.0662 87.5084 63.896 88.3659 64.7259 88.3659H73.9369L74.4901 90.3298H67.5196C66.6898 90.3298 65.8599 91.1597 65.8599 91.9895C65.8599 92.8193 66.6898 93.6767 67.5196 93.6767H75.3199L75.8731 95.6407H57.2022L50.5083 78.3528L49.6785 76.1123C62.513 76.6655 79.2477 76.6655 91.778 76.6655ZM91.778 85.3233H85.0841L84.5309 83.3593H91.778V85.3233ZM80.6307 83.3593L81.184 85.3233H76.7306L76.1774 83.3593H80.6307ZM82.5946 88.6702L83.1479 90.6341H78.4179L77.8647 88.6702H82.5946ZM86.2182 88.6702H91.8056V90.6341H87.0757L86.2458 88.6702H86.2182ZM79.8009 95.9173L79.2477 93.9534H84.2543L84.8075 95.9173H79.8009ZM88.7353 95.9173L87.9055 93.9534H91.529V95.9173H88.7353Z" fill="#5DD148"/>
<path d="M102.897 130.77H47.1335C46.3037 130.77 45.4739 131.599 45.4739 132.457C45.4739 133.314 46.3037 134.116 47.1335 134.116H102.897C103.727 134.116 104.585 133.287 104.585 132.457C104.585 131.627 103.755 130.77 102.897 130.77Z" fill="#5DD148"/>
<path d="M84.2266 108.188C85.1394 108.188 85.8863 108.934 85.8863 109.847C85.8863 110.76 85.1394 111.507 84.2266 111.507C83.3138 111.507 82.5393 110.76 82.5393 109.847C82.5393 108.934 83.2861 108.188 84.2266 108.188Z" fill="#5DD148"/>
<path d="M63.0384 108.188C63.9512 108.188 64.698 108.934 64.698 109.847C64.698 110.76 63.9512 111.507 63.0384 111.507C62.1256 111.507 61.3511 110.76 61.3511 109.847C61.3511 108.934 62.0979 108.188 63.0384 108.188Z" fill="#5DD148"/>
<path d="M97.6147 113.496C98.5275 113.496 99.302 114.243 99.302 115.183C99.302 116.124 98.5552 116.843 97.6147 116.843C96.6742 116.843 95.9551 116.096 95.9551 115.183C95.9551 114.271 96.7019 113.496 97.6147 113.496Z" fill="#5DD148"/>
<path d="M59.4147 85.6094C60.3275 85.6094 61.0744 86.3562 61.0744 87.269C61.0744 88.1818 60.3275 88.9563 59.4147 88.9563C58.5019 88.9563 57.7551 88.2095 57.7551 87.269C57.7551 86.3286 58.5019 85.6094 59.4147 85.6094Z" fill="#5DD148"/>
<rect width="58.0874" height="63.6195" transform="translate(45.1411 55.9609)" fill="white"/>
<path d="M55.796 108.518H92.9387C93.9345 108.518 94.9302 107.541 94.9302 106.564V100.31C94.9302 99.9847 94.9303 99.659 94.5983 99.3334C91.5778 94.7411 86.8976 91.4515 81.8854 89.8231C84.2421 87.8363 85.9018 84.5794 85.9018 81.2899C85.9018 75.0366 80.5577 69.793 74.1847 69.793C67.8117 69.793 62.4676 75.0366 62.4676 81.2899C62.4676 84.5794 64.1274 87.8689 66.484 89.8231C61.4719 91.4515 56.7917 94.7411 53.7712 99.3334C53.4392 99.659 53.4392 99.9847 53.4392 100.31V106.564C53.7711 107.541 54.767 108.518 55.796 108.518ZM67.1811 80.9317C67.1811 76.9908 70.5335 73.7013 74.5499 73.7013C78.5662 73.7013 81.9187 76.9908 81.9187 80.9317C81.9187 84.8726 78.5662 88.1621 74.5499 88.1621C70.5335 88.1621 67.1811 84.8726 67.1811 80.9317ZM58.1526 100.636C66.1853 89.4648 83.2464 89.4648 91.2791 100.636V104.251H83.5783V101.613C83.5783 100.636 82.5825 99.6265 81.5867 99.6265C80.5909 99.6265 79.562 100.604 79.562 101.613V104.251H70.2016V101.613C70.2016 100.636 69.2058 99.6265 68.21 99.6265C67.2143 99.6265 65.5214 100.604 65.5214 101.613V104.251H57.8207V100.636H58.1526Z" fill="#5DD148"/>
</svg>
