<svg width="33" height="31" viewBox="0 0 33 31" fill="none" xmlns="http://www.w3.org/2000/svg">
<path fill-rule="evenodd" clip-rule="evenodd" d="M16.4999 26.2927L8.68444 30.4015C7.74904 30.8933 6.59209 30.5336 6.10032 29.5982C5.90449 29.2257 5.83692 28.7991 5.90806 28.3843L7.40067 19.6817L1.07785 13.5185C0.321098 12.7808 0.305614 11.5694 1.04327 10.8126C1.33701 10.5113 1.72189 10.3152 2.13834 10.2547L10.8763 8.98497L14.784 1.06707C15.2517 0.119409 16.3991 -0.269679 17.3467 0.198022C17.7241 0.384262 18.0295 0.689708 18.2158 1.06707L22.1235 8.98497L30.8614 10.2547C31.9072 10.4066 32.6318 11.3776 32.4799 12.4234C32.4193 12.8399 32.2232 13.2248 31.9219 13.5185L25.5991 19.6817L27.0917 28.3843C27.2703 29.4259 26.5708 30.4151 25.5292 30.5938C25.1144 30.6649 24.6878 30.5973 24.3153 30.4015L16.4999 26.2927Z" fill="#FFB903"/>
</svg>
