<svg width="16" height="16" viewBox="0 0 16 16" fill="none" xmlns="http://www.w3.org/2000/svg">
<path d="M14.26 7.73326C14.6335 7.35149 14.7599 6.79181 14.5867 6.2866C14.4241 5.77968 13.9869 5.40971 13.46 5.33326L10.6 4.89326C10.573 4.88543 10.551 4.86584 10.54 4.83993L9.28668 2.17326C9.06212 1.66305 8.55746 1.33359 8.00001 1.33326C7.44918 1.33099 6.94821 1.65192 6.72001 2.15326L5.46668 4.81993C5.45285 4.84621 5.42869 4.86554 5.40001 4.87326L2.54668 5.33326C2.01932 5.41183 1.58106 5.78048 1.41335 6.2866C1.24662 6.79328 1.37504 7.35063 1.74668 7.73326L3.85335 9.89993C3.86561 9.92752 3.86561 9.95901 3.85335 9.9866L3.36001 13.0133C3.2664 13.5513 3.49113 14.0951 3.93724 14.4101C4.38335 14.7251 4.971 14.7549 5.44668 14.4866L7.93335 13.1066C7.95842 13.0936 7.98827 13.0936 8.01335 13.1066L10.5 14.4866C10.9761 14.749 11.5603 14.7165 12.0044 14.4029C12.4485 14.0894 12.6746 13.5498 12.5867 13.0133L12.1267 9.99993C12.1124 9.97518 12.1124 9.94468 12.1267 9.91993L14.26 7.73326Z" fill="#F4BF38"/>
</svg>
