<svg width="24" height="24" viewBox="0 0 24 24" fill="none" xmlns="http://www.w3.org/2000/svg">
<path d="M22.9549 11.5333C23.6085 10.8652 23.8297 9.88572 23.5266 9.00161C23.2421 8.1145 22.4769 7.46706 21.5549 7.33327L16.5499 6.56327C16.5027 6.54957 16.4641 6.51528 16.4449 6.46994L14.2516 1.80327C13.8586 0.910406 12.9755 0.333836 11.9999 0.333273C11.036 0.329287 10.1593 0.890925 9.75995 1.76827L7.56661 6.43494C7.54241 6.48094 7.50013 6.51476 7.44995 6.52827L2.45661 7.33327C1.53374 7.47076 0.766779 8.11591 0.473279 9.00161C0.181503 9.8883 0.406242 10.8637 1.05661 11.5333L4.74328 15.3249C4.76474 15.3732 4.76474 15.4283 4.74328 15.4766L3.87995 20.7733C3.71613 21.7148 4.1094 22.6665 4.89009 23.2177C5.67078 23.7689 6.69918 23.8211 7.53161 23.3516L11.8833 20.9366C11.9272 20.9138 11.9794 20.9138 12.0233 20.9366L16.3749 23.3516C17.2082 23.8108 18.2305 23.7539 19.0076 23.2052C19.7848 22.6564 20.1805 21.7121 20.0266 20.7733L19.2216 15.4999C19.1966 15.4566 19.1966 15.4033 19.2216 15.3599L22.9549 11.5333Z" fill="#F4BF38"/>
</svg>
