<svg width="20" height="20" viewBox="0 0 20 20" fill="none" xmlns="http://www.w3.org/2000/svg">
<path fill-rule="evenodd" clip-rule="evenodd" d="M9.99988 6.79963C9.06099 6.79963 8.29988 7.56075 8.29988 8.49963C8.29988 9.43852 9.06099 10.1996 9.99988 10.1996C10.9388 10.1996 11.6999 9.43852 11.6999 8.49963C11.6999 7.56075 10.9388 6.79963 9.99988 6.79963ZM6.49988 8.49963C6.49988 6.56664 8.06688 4.99963 9.99988 4.99963C11.9329 4.99963 13.4999 6.56664 13.4999 8.49963C13.4999 10.4326 11.9329 11.9996 9.99988 11.9996C8.06688 11.9996 6.49988 10.4326 6.49988 8.49963Z" fill="#000100"/>
<path fill-rule="evenodd" clip-rule="evenodd" d="M9.99998 0.0996094C7.26641 0.0996094 4.79018 1.20869 2.99962 2.99925C1.20906 4.78981 0.0999756 7.26605 0.0999756 9.99961C0.0999756 12.7332 1.20906 15.2094 2.99962 17C4.79018 18.7905 7.26641 19.8996 9.99998 19.8996C12.7335 19.8996 15.2098 18.7905 17.0003 17C18.7909 15.2094 19.9 12.7332 19.9 9.99961C19.9 7.26605 18.7909 4.78981 17.0003 2.99925C15.2098 1.20869 12.7335 0.0996094 9.99998 0.0996094ZM14.3824 16.813C13.1751 15.8644 11.6541 15.2996 9.99997 15.2996C8.34582 15.2996 6.82482 15.8644 5.61756 16.813C6.88098 17.6275 8.3849 18.0996 9.99998 18.0996C11.615 18.0996 13.119 17.6275 14.3824 16.813ZM4.27241 4.27204C5.73921 2.80525 7.76297 1.89961 9.99998 1.89961C12.237 1.89961 14.2607 2.80525 15.7275 4.27204C17.1943 5.73884 18.1 7.76261 18.1 9.99961C18.1 12.1982 17.2252 14.1908 15.8026 15.6511C14.2451 14.3109 12.2166 13.4996 9.99997 13.4996C7.78338 13.4996 5.75489 14.3109 4.19736 15.6511C2.77478 14.1908 1.89997 12.1982 1.89997 9.99961C1.89997 7.76261 2.80561 5.73884 4.27241 4.27204ZM6.49988 8.49963C6.49988 6.56664 8.06688 4.99963 9.99988 4.99963C11.9329 4.99963 13.4999 6.56664 13.4999 8.49963C13.4999 10.4326 11.9329 11.9996 9.99988 11.9996C8.06688 11.9996 6.49988 10.4326 6.49988 8.49963ZM9.99988 6.79963C9.06099 6.79963 8.29988 7.56075 8.29988 8.49963C8.29988 9.43852 9.06099 10.1996 9.99988 10.1996C10.9388 10.1996 11.6999 9.43852 11.6999 8.49963C11.6999 7.56075 10.9388 6.79963 9.99988 6.79963Z" fill="#000100"/>
</svg>
