<svg width="24" height="24" viewBox="0 0 24 24" fill="none" xmlns="http://www.w3.org/2000/svg">
<path d="M2.87601 18.1159C2.92195 17.7024 2.94493 17.4957 3.00748 17.3025C3.06298 17.131 3.1414 16.9679 3.24061 16.8174C3.35242 16.6478 3.49952 16.5008 3.7937 16.2066L17 3.0003C18.1046 1.89573 19.8954 1.89573 21 3.0003C22.1046 4.10487 22.1046 5.89573 21 7.0003L7.7937 20.2066C7.49951 20.5008 7.35242 20.6479 7.18286 20.7597C7.03242 20.8589 6.86926 20.9373 6.69782 20.9928C6.50457 21.0553 6.29783 21.0783 5.88434 21.1243L2.49997 21.5003L2.87601 18.1159Z" stroke="#000100" stroke-width="2" stroke-linecap="round" stroke-linejoin="round"/>
</svg>
