<svg width="145" height="154" viewBox="0 0 145 154" fill="none" xmlns="http://www.w3.org/2000/svg">
<path d="M129.112 14.5267V1.72937C129.112 0.864684 128.313 0 127.515 0H97.1932C96.3946 0 95.596 0.864684 95.596 1.72937V112.438H90.4848V5.24574C90.4848 4.38106 89.6861 3.51637 88.8875 3.51637H28.511C27.7124 3.51637 26.8872 4.38106 26.8872 5.24574V112.466H17.7562C13.4702 112.466 10.249 116.242 10.249 120.594C10.249 125.235 13.7364 128.722 17.7562 128.722H33.3294C27.1533 134.545 27.1533 144.719 33.3294 150.512H18.2886C17.49 150.512 16.6913 151.377 16.6913 152.242C16.6913 153.107 17.49 154 18.2886 154H107.123C107.922 154 108.747 153.135 108.747 152.242C108.747 151.348 107.948 150.512 107.123 150.512H99.3495C105.526 144.69 105.526 134.545 99.3495 128.722H109.013C109.812 128.722 110.637 127.858 110.637 126.964V16.5731H127.541C128.34 16.5731 129.138 15.7084 129.138 14.5267H129.112ZM52.896 28.7651L58.5396 22.6547L64.1833 28.7651C65.2481 29.918 67.1381 29.0533 67.1381 27.6122V18.5907H87.2636V49.4022H30.1084V18.3025H50.2339V27.2952C50.2339 29.0533 51.8576 29.6298 52.9224 28.7363L52.896 28.7651ZM30.0817 52.8898H87.237V58.4237H30.0817V52.8898ZM50.2072 61.9113V69.1746H30.0817V61.9113H50.2072ZM53.4283 61.9113H63.6242V77.5909L59.8707 73.5269C59.3382 72.9504 58.2467 72.9504 57.4481 73.5269L53.6946 77.5909V61.9113H53.4283ZM66.8454 61.9113H86.9708V69.1746H66.8454V61.9113ZM30.0817 99.9862H35.1929C35.9915 99.9862 36.7901 99.1215 36.7901 98.2568C36.7901 97.3921 35.9915 96.4986 35.1929 96.4986H30.0817V72.9504H50.2072V81.9719C50.2072 83.7013 52.0973 84.3066 53.1621 83.1248L58.8058 77.0144L64.4494 83.1248C65.5142 84.2778 67.4043 83.4131 67.4043 81.9719V72.9504H87.5298V103.762H30.0817V99.9862ZM86.9708 14.5555H66.8454V7.29216H86.9708V14.5555ZM63.6242 7.29216V22.9717L59.8707 18.9077C59.3382 18.3313 58.2467 18.3313 57.4481 18.9077L53.6946 22.9717V7.29216H63.6242ZM50.2072 7.29216V14.5555H30.0817V7.29216H50.2072ZM30.0817 107.249H87.237V112.783H30.0817V107.249ZM31.6789 140.079C31.6789 133.968 36.2312 129.04 41.8748 129.04C47.5185 129.04 52.0707 133.968 52.0707 140.079C52.0707 146.189 47.5185 151.118 41.8748 151.118C36.2312 151.118 31.6789 145.901 31.6789 140.079ZM50.7397 150.829C56.9157 145.007 56.9157 134.833 50.7397 129.04H81.5934C75.4173 134.862 75.4173 145.036 81.5934 150.829H50.7397ZM100.388 140.079C100.388 146.189 95.8355 151.118 90.1919 151.118C84.5482 151.118 79.9962 146.189 79.9962 140.079C79.9962 133.968 84.5482 129.04 90.1919 129.04C95.8355 129.04 100.388 133.968 100.388 140.079ZM125.624 12.7973H108.72C107.922 12.7973 107.096 13.662 107.096 14.5267V125.235H17.4634C15.0409 125.235 13.1773 123.188 13.1773 120.594C13.1773 118 15.0675 115.954 17.4634 115.954H97.1667C97.9654 115.954 98.7906 115.089 98.7906 114.225V3.77578H125.624V12.7973Z" fill="#5DD148"/>
<path d="M41.8748 132.815C38.1212 132.815 35.1663 136.015 35.1663 140.079C35.1663 144.143 38.1212 147.342 41.8748 147.342C45.6284 147.342 48.5834 144.143 48.5834 140.079C48.5834 136.015 45.3622 132.815 41.8748 132.815ZM41.8748 143.566C39.9847 143.566 38.3875 141.808 38.3875 139.791C38.3875 137.773 39.9847 136.015 41.8748 136.015C43.7649 136.015 45.3622 137.773 45.3622 139.791C45.0959 142.125 43.4721 143.566 41.8748 143.566Z" fill="#5DD148"/>
<path d="M90.4586 147.342C94.2121 147.342 97.1671 144.143 97.1671 140.079C97.1671 136.015 94.2121 132.815 90.4586 132.815C86.705 132.815 83.75 136.015 83.75 140.079C83.75 143.855 86.705 147.342 90.4586 147.342ZM90.4586 136.303C92.3486 136.303 93.9459 138.032 93.9459 140.079C93.9459 142.125 92.3486 143.855 90.4586 143.855C88.5685 143.855 86.9712 142.125 86.9712 140.079C86.9712 138.032 88.5951 136.303 90.4586 136.303Z" fill="#5DD148"/>
<path d="M16.6381 87.1905C16.6381 82.2618 12.8846 78.1689 8.30575 78.1689C3.72693 78.1689 0 82.233 0 87.1905C0 92.148 3.75355 96.212 8.30575 96.212C12.8579 96.212 16.6381 92.4362 16.6381 87.1905ZM8.30575 92.7244C5.61702 92.7244 3.22104 90.3898 3.22104 87.1905C3.22104 84.2794 5.37743 81.6565 8.30575 81.6565C11.2341 81.6565 13.4169 83.9911 13.4169 87.1905C13.1507 90.3898 10.9945 92.7244 8.30575 92.7244Z" fill="#5DD148"/>
<path d="M144.126 49.978C144.126 43.5794 139.281 38.0742 133.132 38.0742C126.982 38.0742 122.137 43.32 122.137 49.978C122.137 56.6361 126.956 61.8818 133.132 61.8818C139.308 61.8818 144.126 56.6649 144.126 49.978ZM133.132 58.106C128.846 58.106 125.625 54.3303 125.625 49.978C125.625 45.3376 129.112 41.85 133.132 41.85C137.151 41.85 140.639 45.6258 140.639 49.978C140.639 54.6185 137.418 58.106 133.132 58.106Z" fill="#5DD148"/>
<path d="M12.3521 23.548C13.69 23.548 14.7747 22.3737 14.7747 20.9251C14.7747 19.4765 13.69 18.3022 12.3521 18.3022C11.0142 18.3022 9.92969 19.4765 9.92969 20.9251C9.92969 22.3737 11.0142 23.548 12.3521 23.548Z" fill="#5DD148"/>
<path d="M19.0611 58.4233C20.3922 58.4233 21.4836 59.6051 21.4836 61.0462C21.4836 62.4873 20.3922 63.6691 19.0611 63.6691C17.7301 63.6691 16.6387 62.4873 16.6387 61.0462C16.6387 59.6051 17.7301 58.4233 19.0611 58.4233Z" fill="#5DD148"/>
<path d="M136.618 22.0796C137.95 22.0796 139.041 23.2613 139.041 24.7025C139.041 26.1436 137.95 27.3253 136.618 27.3253C135.287 27.3253 134.196 26.1436 134.196 24.7025C134.196 23.2613 135.287 22.0796 136.618 22.0796Z" fill="#5DD148"/>
<path d="M119.715 74.6802C121.046 74.6802 122.137 75.8619 122.137 77.303C122.137 78.7442 121.046 79.9259 119.715 79.9259C118.384 79.9259 117.292 78.7442 117.292 77.303C117.292 75.8619 118.384 74.6802 119.715 74.6802Z" fill="#5DD148"/>
<path d="M139.84 125.553C141.171 125.553 142.262 126.734 142.262 128.176C142.262 129.617 141.171 130.798 139.84 130.798C138.509 130.798 137.417 129.617 137.417 128.176C137.417 126.734 138.509 125.553 139.84 125.553Z" fill="#5DD148"/>
<path d="M5.6438 132.815C6.97485 132.815 8.06624 133.997 8.06624 135.438C8.06624 136.879 6.97485 138.061 5.6438 138.061C4.31274 138.061 3.22119 136.879 3.22119 135.438C3.22119 133.997 4.31274 132.815 5.6438 132.815Z" fill="#5DD148"/>
</svg>
