<svg width="150" height="160" viewBox="0 0 150 160" fill="none" xmlns="http://www.w3.org/2000/svg">
    <path d="M7.63543 17.1641C8.98473 17.1641 10.0911 18.2705 10.0911 19.6198C10.0911 20.9691 8.98473 22.0755 7.63543 22.0755C6.28613 22.0755 5.17969 20.9691 5.17969 19.6198C5.17969 18.2705 6.28613 17.1641 7.63543 17.1641Z" fill="#018A10"/>
    <path d="M19.6198 76.749C20.9691 76.749 22.0755 77.8554 22.0755 79.2047C22.0755 80.554 20.9691 81.6605 19.6198 81.6605C18.2705 81.6605 17.1641 80.554 17.1641 79.2047C17.1641 77.8554 18.2705 76.749 19.6198 76.749Z" fill="#018A10"/>
    <path d="M145.319 69.9482C146.668 69.9482 147.775 71.0547 147.775 72.404C147.775 73.7533 146.668 74.8597 145.319 74.8597C143.97 74.8597 142.863 73.7533 142.863 72.404C142.863 71.0547 143.97 69.9482 145.319 69.9482Z" fill="#018A10"/>
    <path d="M140.409 12.0088C141.758 12.0088 142.865 13.1152 142.865 14.4645C142.865 15.8138 141.758 16.9202 140.409 16.9202C139.06 16.9202 137.953 15.8138 137.953 14.4645C137.953 13.1152 139.06 12.0088 140.409 12.0088Z" fill="#018A10"/>
    <path d="M147.208 117.549C148.557 117.549 149.663 118.655 149.663 120.005C149.663 121.354 148.557 122.46 147.208 122.46C145.858 122.46 144.752 121.354 144.752 120.005C144.752 118.655 145.858 117.549 147.208 117.549Z" fill="#018A10"/>
    <path d="M128.454 137.979C129.803 137.979 130.909 139.086 130.909 140.435C130.909 141.785 129.803 142.891 128.454 142.891C127.104 142.891 125.998 141.785 125.998 140.435C125.998 139.086 127.104 137.979 128.454 137.979Z" fill="#018A10"/>
    <path d="M14.4362 139.601C15.7855 139.601 16.8919 140.707 16.8919 142.056C16.8919 143.406 15.7855 144.512 14.4362 144.512C13.0869 144.512 11.9805 143.406 11.9805 142.056C11.9805 140.707 13.0869 139.601 14.4362 139.601Z" fill="#018A10"/>
    <path d="M8.4466 98.7969C3.83199 98.7969 0 102.602 0 107.243C0 111.885 3.805 115.69 8.4466 115.69C13.0882 115.69 16.8932 111.885 16.8932 107.243C16.8932 102.602 13.0882 98.7969 8.4466 98.7969ZM8.4466 112.398C5.72101 112.398 3.26529 110.212 3.26529 107.217C3.26529 104.491 5.45115 102.035 8.4466 102.035C11.4421 102.035 13.628 104.221 13.628 107.217C13.628 109.942 11.1722 112.398 8.4466 112.398Z" fill="#018A10"/>
    <path d="M149.664 97.9587C149.664 91.9678 144.779 86.8135 138.518 86.8135C132.258 86.8135 127.373 91.6979 127.373 97.9587C127.373 104.219 132.258 109.104 138.518 109.104C144.779 109.104 149.664 103.923 149.664 97.9587ZM138.518 105.569C134.174 105.569 130.908 102.034 130.908 97.9587C130.908 93.614 134.443 90.3486 138.518 90.3486C142.593 90.3486 146.128 93.8838 146.128 97.9587C146.128 102.034 142.863 105.569 138.518 105.569Z" fill="#018A10"/>
    <path d="M134.419 67.492V25.5827C134.419 24.7731 133.609 23.9636 132.8 23.9636H119.199V15.517C119.199 7.07033 112.398 0 103.682 0H42.7474C34.3008 0 27.2305 6.80047 27.2305 15.517V144.483C27.2305 152.93 34.031 160 42.7474 160H103.682C112.129 160 119.199 153.2 119.199 144.483V76.4513H125.46C130.344 76.7212 134.446 72.6463 134.446 67.465L134.419 67.492ZM125.163 73.213H99.0403C96.0449 73.213 93.5892 71.0272 93.3193 68.0317H130.587C130.587 71.0272 128.131 73.213 125.136 73.213H125.163ZM105.301 23.9636H91.7001C90.8905 23.9636 90.081 24.7731 90.081 25.5827V67.492C90.081 72.3765 94.1558 76.4783 99.0673 76.4783H105.328V140.678C105.328 143.673 102.872 146.129 99.8769 146.129H46.2826C43.2872 146.129 40.8314 143.673 40.8314 140.678V19.349C40.8314 16.3535 43.2872 13.8978 46.2826 13.8978H57.9945C58.5343 16.8932 60.99 19.0791 63.9855 19.0791H82.201C85.1965 19.0791 87.6522 16.8932 88.1919 13.8978H99.9039C102.899 13.8978 105.355 16.3535 105.355 19.349V23.9636H105.301ZM130.884 64.7664H93.6162V61.2312H131.154V64.7664H130.884ZM130.884 57.9659H93.6162V27.2289H131.154V57.9659H130.884ZM115.637 144.483C115.637 151.014 110.186 156.465 103.655 156.465H42.7205C36.1899 156.465 30.7387 151.014 30.7387 144.483V15.5439C30.7387 9.01332 36.1899 3.56215 42.7205 3.56215H103.655C110.186 3.56215 115.637 9.01332 115.637 15.5439C115.637 24.5303 115.637 21.8047 115.637 22.3444V23.9906H108.836V19.3759C108.836 14.4915 104.761 10.3896 99.8499 10.3896H86.7887C85.9791 10.3896 85.1695 11.1992 85.1695 12.0358V12.5755C85.1695 14.1946 83.8202 15.3011 82.4439 15.3011H64.2013C62.5552 15.3011 61.4758 13.9518 61.4758 12.5755V12.0358C61.4758 11.2262 60.6662 10.3896 59.8566 10.3896H46.7954C41.9109 10.3896 37.809 14.4645 37.809 19.3759V141.002C37.809 145.886 41.8839 149.988 46.7954 149.988H100.39C105.274 149.988 109.376 145.913 109.376 141.002V76.8022H116.176L115.637 144.537V144.483Z" fill="#018A10"/>
    <path d="M112.128 52.8106C117.849 52.8106 122.464 48.196 122.464 42.475V34.0283C122.464 33.2188 121.654 32.4092 120.844 32.4092C120.035 32.4092 119.198 33.2188 119.198 34.0283V42.475C119.198 46.28 116.203 49.2754 112.398 49.2754C108.593 49.2754 105.597 46.28 105.597 42.475V34.0283C105.597 33.2188 104.788 32.4092 103.978 32.4092C103.169 32.4092 102.359 33.2188 102.359 34.0283V42.475C102.089 48.196 106.704 52.8106 112.155 52.8106H112.128Z" fill="#018A10"/>
    <path d="M59.6127 86.8143V93.6148H52.8122C52.0026 93.6148 51.166 94.4244 51.166 95.261V103.708C51.166 104.517 51.9756 105.327 52.8122 105.327H59.6127V110.508H52.8122C52.0026 110.508 51.166 111.318 51.166 112.127V120.844C51.166 121.653 51.9756 122.463 52.8122 122.463H59.6127V127.644H52.8122C52.0026 127.644 51.166 128.454 51.166 129.29V137.737C51.166 138.547 51.9756 139.356 52.8122 139.356H85.1954C86.005 139.356 86.8416 138.547 86.8416 137.737V130.936H93.6421C94.4516 130.936 95.2882 130.127 95.2882 129.317V120.871C95.2882 120.061 94.4786 119.225 93.6421 119.225H86.8416V114.043H93.6421C94.4516 114.043 95.2882 113.234 95.2882 112.424V103.977C95.2882 103.168 94.4786 102.358 93.6421 102.358H86.8416V97.177H93.6421C94.4516 97.177 95.2882 96.3674 95.2882 95.5308V87.0842C95.2882 86.2746 94.4786 85.465 93.6421 85.465H61.2588C60.1794 85.1952 59.6396 86.0048 59.6396 86.8143H59.6127ZM83.2794 136.064H54.4313V130.882H83.2794V136.064ZM91.726 127.617H62.878V122.436H91.726V127.617ZM83.2794 119.171H54.4313V113.989H83.2794V119.171ZM91.726 110.724H62.878V105.543H91.726V110.724ZM83.2794 102.007H54.4313V96.8261H83.2794V102.007ZM62.878 88.4065H91.726V93.5878H62.878V88.4065Z" fill="#018A10"/>
    <path d="M56.0781 64.4971C56.0781 72.9437 62.8786 79.7442 71.3252 79.7442C79.7719 79.7442 86.5724 72.9437 86.5724 64.4971C86.5724 56.0505 79.7719 49.25 71.3252 49.25C62.8786 49.25 56.0781 56.0505 56.0781 64.4971ZM83.2801 64.4971C83.2801 71.0277 77.8289 76.4789 71.2983 76.4789C64.7676 76.4789 59.3164 71.0277 59.3164 64.4971C59.3164 57.9665 64.7676 52.5153 71.2983 52.5153C77.8289 52.5153 83.2801 57.9665 83.2801 64.4971Z" fill="#018A10"/>
    <path d="M80.0141 42.7471C80.0141 41.9375 79.2046 41.1279 78.395 41.1279H47.6579C46.8483 41.1279 46.0117 41.9375 46.0117 42.7471C46.0117 43.5567 46.8213 44.3932 47.6579 44.3932H78.395C79.2046 44.3932 80.0141 43.5837 80.0141 42.7471Z" fill="#018A10"/>
    <path d="M47.6305 37.5625H78.3676C79.1772 37.5625 79.9868 36.753 79.9868 35.9434C79.9868 35.1338 79.1772 34.3242 78.3676 34.3242H47.6305C46.8209 34.3242 45.9844 35.1338 45.9844 35.9434C45.9844 36.753 46.5241 37.5625 47.6305 37.5625Z" fill="#018A10"/>
    <path d="M47.6305 30.7663H59.6123C60.4219 30.7663 61.2315 29.9567 61.2315 29.1471C61.2315 28.3375 60.4219 27.501 59.6123 27.501H47.6305C46.8209 27.501 45.9844 28.3106 45.9844 29.1471C45.9844 29.9837 46.5241 30.7663 47.6305 30.7663Z" fill="#018A10"/>
    <path d="M71.4395 72.0987C71.1324 72.0987 70.8928 72.0127 70.7208 71.8407C70.5611 71.6687 70.4813 71.423 70.4813 71.1036V63.1608H66.7955C66.5621 63.1608 66.3778 63.1055 66.2427 62.995C66.1198 62.8721 66.0584 62.7063 66.0584 62.4974C66.0584 62.2885 66.1198 62.1227 66.2427 61.9998C66.3778 61.877 66.5621 61.8155 66.7955 61.8155H76.0836C76.317 61.8155 76.4951 61.877 76.618 61.9998C76.7531 62.1227 76.8207 62.2885 76.8207 62.4974C76.8207 62.7063 76.7531 62.8721 76.618 62.995C76.4951 63.1055 76.317 63.1608 76.0836 63.1608H72.3978V71.1036C72.3978 71.423 72.318 71.6687 72.1583 71.8407C71.9985 72.0127 71.759 72.0987 71.4395 72.0987ZM66.7955 60.3228C66.5621 60.3228 66.3778 60.2675 66.2427 60.157C66.1198 60.0341 66.0584 59.8621 66.0584 59.641C66.0584 59.4321 66.1198 59.2724 66.2427 59.1618C66.3778 59.039 66.5621 58.9775 66.7955 58.9775H76.0836C76.317 58.9775 76.4951 59.039 76.618 59.1618C76.7531 59.2724 76.8207 59.4321 76.8207 59.641C76.8207 59.8621 76.7531 60.0341 76.618 60.157C76.4951 60.2675 76.317 60.3228 76.0836 60.3228H66.7955Z" fill="#018A10"/>
    </svg>
    