<svg width="162" height="160" viewBox="0 0 162 160" fill="none" xmlns="http://www.w3.org/2000/svg">
<path d="M77.2602 149.532H84.1302C84.9481 149.532 85.7931 148.714 85.7931 147.869C85.7931 147.024 84.9753 146.233 84.1302 146.233H77.2602C76.4423 146.233 75.6245 147.051 75.6245 147.869C75.6245 148.687 76.4423 149.532 77.2602 149.532Z" fill="#5DD148"/>
<path d="M22.2732 138.817C17.6114 138.817 13.7402 142.661 13.7402 147.35C13.7402 152.039 17.5842 155.883 22.2732 155.883C26.9623 155.883 30.8062 152.039 30.8062 147.35C31.0788 142.689 27.2349 138.817 22.2732 138.817ZM22.2732 152.557C19.5198 152.557 17.039 150.349 17.039 147.323C17.039 144.57 19.2471 142.089 22.2732 142.089C25.2993 142.089 27.5075 144.297 27.5075 147.323C27.5075 150.349 25.2993 152.557 22.2732 152.557Z" fill="#5DD148"/>
<path d="M141.025 137.154C135.246 137.154 130.584 141.816 130.584 147.596C130.584 153.375 135.246 158.037 141.025 158.037C146.805 158.037 151.467 153.375 151.467 147.596C151.467 141.816 146.532 137.154 141.025 137.154ZM141.025 154.193C137.181 154.193 134.155 151.167 134.155 147.323C134.155 143.479 137.181 140.453 141.025 140.453C144.869 140.453 147.895 143.479 147.895 147.323C147.895 151.167 144.597 154.193 141.025 154.193Z" fill="#5DD148"/>
<path d="M148.713 118.208C150.076 118.208 151.194 119.326 151.194 120.689C151.194 122.052 150.076 123.17 148.713 123.17C147.35 123.17 146.232 122.052 146.232 120.689C146.232 119.326 147.35 118.208 148.713 118.208Z" fill="#5DD148"/>
<path d="M122.869 140.727C124.232 140.727 125.35 141.844 125.35 143.207C125.35 144.57 124.232 145.688 122.869 145.688C121.506 145.688 120.388 144.57 120.388 143.207C120.388 141.844 121.506 140.727 122.869 140.727Z" fill="#5DD148"/>
<path d="M140.18 118.208C141.544 118.208 142.661 119.326 142.661 120.689C142.661 122.052 141.544 123.17 140.18 123.17C138.817 123.17 137.7 122.052 137.7 120.689C137.7 119.326 138.817 118.208 140.18 118.208Z" fill="#5DD148"/>
<path d="M40.429 135.52C41.7921 135.52 42.9099 136.637 42.9099 138C42.9099 139.363 41.7921 140.481 40.429 140.481C39.0659 140.481 37.9482 139.363 37.9482 138C37.9482 136.637 39.0659 135.52 40.429 135.52Z" fill="#5DD148"/>
<path d="M6.05205 142.389C7.41514 142.389 8.53297 143.506 8.53297 144.869C8.53297 146.233 7.41514 147.35 6.05205 147.35C4.68895 147.35 3.57129 146.233 3.57129 144.869C3.57129 143.506 4.68895 142.389 6.05205 142.389Z" fill="#5DD148"/>
<path d="M158.882 152.557C160.245 152.557 161.363 153.674 161.363 155.037C161.363 156.401 160.245 157.518 158.882 157.518C157.519 157.518 156.401 156.401 156.401 155.037C156.401 153.674 157.519 152.557 158.882 152.557Z" fill="#5DD148"/>
<path d="M131.403 118.208C132.766 118.208 133.884 119.326 133.884 120.689C133.884 122.052 132.766 123.17 131.403 123.17C130.04 123.17 128.922 122.052 128.922 120.689C128.922 119.326 130.04 118.208 131.403 118.208Z" fill="#5DD148"/>
<path d="M149.259 20.3375H116.817V4.93454C116.817 4.11669 115.999 3.29883 115.181 3.29883H46.4542C45.6363 3.29883 44.8185 4.11669 44.8185 4.93454V20.3375H12.3768C5.50684 20.3375 0 25.8444 0 32.7144V120.116C0 126.986 5.50684 132.493 12.3768 132.493H68.7271C68.1819 138.272 63.4928 142.934 57.4679 142.934H56.9228C52.261 142.934 48.4171 146.778 48.4171 151.467C48.4171 156.156 52.261 160 56.9228 160H104.74C109.402 160 113.273 156.156 113.273 151.467C113.273 146.778 109.429 142.934 104.74 142.934H103.922C98.1428 142.934 93.2084 138.272 92.6631 132.493H149.013C155.883 132.493 161.39 126.986 161.39 120.116V32.7144C161.663 25.8444 155.883 20.3375 149.286 20.3375H149.259ZM147.896 71.7262H132.493C131.675 71.7262 130.83 72.544 130.83 73.3891C130.83 74.2342 131.648 75.0248 132.493 75.0248H147.896V78.5961H132.493C131.675 78.5961 130.83 79.414 130.83 80.2591C130.83 81.1042 131.648 81.8948 132.493 81.8948H147.896V85.4661H132.493C131.675 85.4661 130.83 86.284 130.83 87.1019C130.83 87.9197 131.648 88.7648 132.493 88.7648H147.896V92.3361H132.493C131.675 92.3361 130.83 93.154 130.83 93.9719C130.83 94.7897 131.648 95.6076 132.493 95.6076H147.896V99.1789H13.7672V95.6076H29.1702C29.9881 95.6076 30.8332 94.7897 30.8332 93.9719C30.8332 93.154 30.0154 92.3361 29.1702 92.3361H13.7672V88.7648H29.1702C29.9881 88.7648 30.8332 87.947 30.8332 87.1019C30.8332 86.2567 30.0154 85.4661 29.1702 85.4661H13.7672V81.8948H29.1702C29.9881 81.8948 30.8332 81.077 30.8332 80.2591C30.8332 79.4413 30.0154 78.5961 29.1702 78.5961H13.7672V75.0248H29.1702C29.9881 75.0248 30.8332 74.207 30.8332 73.3891C30.8332 72.5713 30.0154 71.7262 29.1702 71.7262H13.7672V34.0775H44.5458V87.4017C44.5458 88.2196 45.3638 89.0375 46.1816 89.0375H114.909C115.727 89.0375 116.572 88.2196 116.572 87.4017V34.0775H147.623V71.7262H147.896ZM48.1171 6.59752H113.546V85.766H48.1171V6.59752ZM12.3768 23.6362H44.5458V30.5062H12.1043C11.2864 30.5062 10.4685 31.324 10.4685 32.1419V100.869C10.4685 101.687 11.2864 102.532 12.1043 102.532H149.531C150.349 102.532 151.167 101.714 151.167 100.869V32.1419C151.167 31.324 150.349 30.5062 149.531 30.5062H116.817V23.6362H149.259C154.193 23.6362 158.337 27.7527 158.337 32.7144V108.312H3.59859V32.7144C3.59859 27.78 7.44246 23.6362 12.4041 23.6362H12.3768ZM103.895 145.96H104.713C107.466 145.96 109.947 148.168 109.947 151.195C109.947 153.948 107.739 156.429 104.713 156.429H57.1681C54.4146 156.429 51.9339 154.221 51.9339 151.195C51.9339 148.441 54.142 145.96 57.1681 145.96H57.7134C65.4012 145.96 71.9987 139.908 72.2713 132.22H89.5825C89.8551 139.908 96.1799 145.96 103.868 145.96H103.895ZM149.259 128.922H12.3768C7.44243 128.922 3.29858 124.805 3.29858 119.843V111.61H158.037V119.843C158.037 124.778 154.193 128.922 149.232 128.922H149.259Z" fill="#5DD148"/>
<path d="M79.3942 11.1346C73.1296 11.1346 68.1548 16.1094 68.1548 22.374C68.1548 28.6386 73.1296 33.6134 79.3942 33.6134C86.5801 33.6134 92.1076 26.7961 90.2651 19.6102L93.2132 16.6622C94.5029 15.3724 94.5029 13.1614 93.2132 11.8716C91.9234 10.5819 89.7124 10.5819 88.4226 11.8716L86.3958 13.8984C84.369 12.0559 81.9737 11.1346 79.3942 11.1346ZM79.3942 31.2182C74.4194 31.2182 70.5501 27.1646 70.5501 22.374C70.5501 17.5835 74.6036 13.5299 79.3942 13.5299C81.421 13.5299 83.2635 14.2669 84.7375 15.3724L80.3155 19.7945L79.5784 19.0575C78.8414 18.3205 78.1044 18.1362 77.1832 18.1362C75.3406 18.1362 73.6824 19.6102 73.6824 21.637C73.6824 22.5583 74.0509 23.4795 74.6036 24.0323L79.3942 28.8229C79.7627 29.1914 80.4997 29.1914 81.0525 28.8229L88.2383 21.637C88.6068 26.7961 84.5533 31.2182 79.3942 31.2182ZM89.8966 13.3457C90.0809 13.1614 90.4494 12.9771 90.6336 12.9771C91.5549 12.9771 92.1076 14.2669 91.3706 15.0039L80.1312 26.2433L76.0777 22.1898C75.3406 21.4528 75.8934 20.163 76.8147 20.163C77.1832 20.163 77.3674 20.3472 77.5517 20.5315L79.2099 22.1898C79.5785 22.5583 80.3155 22.5583 80.8682 22.1898C90.4494 12.6086 80.684 22.374 86.9486 16.1094L89.8966 13.3457Z" fill="#5DD148"/>
<path d="M129.739 6.59668C131.102 6.59668 132.22 7.71442 132.22 9.07751C132.22 10.4406 131.102 11.5583 129.739 11.5583C128.376 11.5583 127.258 10.4406 127.258 9.07751C127.258 7.71442 128.376 6.59668 129.739 6.59668Z" fill="#5DD148"/>
<path d="M33.5595 10.168C34.9226 10.168 36.0403 11.2857 36.0403 12.6488C36.0403 14.0119 34.9226 15.1296 33.5595 15.1296C32.1964 15.1296 31.0786 14.0119 31.0786 12.6488C31.0786 11.2857 32.1964 10.168 33.5595 10.168Z" fill="#5DD148"/>
<path d="M18.9739 16.7664C22.8178 16.7664 25.8439 13.7403 25.8439 9.89636C25.8439 6.05243 22.8178 3.02637 18.9739 3.02637C15.13 3.02637 12.104 6.05243 12.104 9.89636C12.104 13.7403 15.13 16.7664 18.9739 16.7664ZM18.9739 6.59767C20.9095 6.59767 22.5452 8.23338 22.5452 10.169C22.5452 12.1046 20.9095 13.7403 18.9739 13.7403C17.0383 13.7403 15.4026 12.1046 15.4026 10.169C15.4026 7.96077 17.0383 6.59767 18.9739 6.59767Z" fill="#5DD148"/>
<path d="M148.713 18.7017C153.948 18.7017 158.064 14.5851 158.064 9.35083C158.064 4.11655 153.948 0 148.713 0C143.479 0 139.363 4.11655 139.363 9.35083C139.09 14.3125 143.479 18.7017 148.713 18.7017ZM148.713 3.02607C152.012 3.02607 154.766 5.77952 154.766 9.07821C154.766 12.3769 152.012 15.1303 148.713 15.1303C145.415 15.1303 142.661 12.3769 142.661 9.07821C142.661 5.77952 145.415 3.02607 148.713 3.02607Z" fill="#5DD148"/>
<path d="M54.9872 46.1805H79.1684C79.9863 46.1805 80.8042 45.3627 80.8042 44.5448C80.8042 43.7269 79.9863 42.8818 79.1684 42.8818H54.9872C54.1693 42.8818 53.3242 43.6997 53.3242 44.5448C53.3242 45.3899 54.142 46.1805 54.9872 46.1805Z" fill="#5DD148"/>
<path d="M54.9872 51.1435H106.648C107.466 51.1435 108.311 50.3256 108.311 49.5078C108.311 48.6899 107.494 47.8721 106.648 47.8721H54.9872C54.1693 47.8721 53.3242 48.6899 53.3242 49.5078C53.3242 50.3256 54.142 51.1435 54.9872 51.1435Z" fill="#5DD148"/>
<path d="M54.9872 59.9217H79.1684C79.9863 59.9217 80.8042 59.1039 80.8042 58.286C80.8042 57.4682 79.9863 56.623 79.1684 56.623H54.9872C54.1693 56.623 53.3242 57.4409 53.3242 58.286C53.3242 59.1311 54.142 59.9217 54.9872 59.9217Z" fill="#5DD148"/>
<path d="M54.9872 64.8837H106.648C107.466 64.8837 108.311 64.0658 108.311 63.2207C108.311 62.3756 107.494 61.585 106.648 61.585H54.9872C54.1693 61.585 53.3242 62.4028 53.3242 63.2207C53.3242 64.0385 54.142 64.8837 54.9872 64.8837Z" fill="#5DD148"/>
<path d="M54.9872 73.662H79.1684C79.9863 73.662 80.8042 72.8441 80.8042 71.999C80.8042 71.1539 79.9863 70.3633 79.1684 70.3633H54.9872C54.1693 70.3633 53.3242 71.1811 53.3242 71.999C53.3242 72.8169 54.142 73.662 54.9872 73.662Z" fill="#5DD148"/>
<path d="M54.9872 78.6229H106.648C107.466 78.6229 108.311 77.8051 108.311 76.9872C108.311 76.1693 107.494 75.3242 106.648 75.3242H54.9872C54.1693 75.3242 53.3242 76.1421 53.3242 76.9872C53.3242 77.8323 54.142 78.6229 54.9872 78.6229Z" fill="#5DD148"/>
</svg>
