<svg width="65" height="64" viewBox="0 0 65 64" fill="none" xmlns="http://www.w3.org/2000/svg">
<g clip-path="url(#clip0_1348_68398)">
<path d="M28.1528 47.5811H37.2435V63.9616H28.1528V47.5811Z" fill="url(#paint0_linear_1348_68398)"/>
<path d="M13.253 20.0464H2.48001C1.54407 20.0464 0.7854 20.8051 0.7854 21.741V51.8948H13.253V20.0464ZM6.81752 47.0064C5.6481 47.0064 4.70017 46.0585 4.70017 44.8891C4.70017 43.7196 5.6481 42.7717 6.81752 42.7717C7.98694 42.7717 8.93487 43.7196 8.93487 44.8891C8.93487 46.0584 7.98694 47.0064 6.81752 47.0064ZM6.81752 37.918C5.6481 37.918 4.70017 36.9701 4.70017 35.8007C4.70017 34.6312 5.6481 33.6833 6.81752 33.6833C7.98694 33.6833 8.93487 34.6312 8.93487 35.8007C8.93487 36.97 7.98694 37.918 6.81752 37.918ZM6.81752 28.8296C5.6481 28.8296 4.70017 27.8817 4.70017 26.7123C4.70017 25.5428 5.6481 24.5949 6.81752 24.5949C7.98694 24.5949 8.93487 25.5428 8.93487 26.7123C8.93487 27.8817 7.98694 28.8296 6.81752 28.8296Z" fill="url(#paint1_linear_1348_68398)"/>
<path d="M47.834 63.9615V1.69461C47.834 0.758668 47.0754 0 46.1394 0H19.1824C18.2465 0 17.4878 0.758668 17.4878 1.69461V63.9615H23.9183V45.4823C23.9183 44.3232 24.8662 43.3835 26.0357 43.3835H39.361C40.5304 43.3835 41.4784 44.3232 41.4784 45.4823V63.9615H47.834ZM30.0039 37.2977C30.0039 38.4567 29.056 39.3964 27.8865 39.3964C26.7171 39.3964 25.7692 38.4567 25.7692 37.2977V34.9452C25.7692 33.7862 26.7171 32.8465 27.8865 32.8465C29.056 32.8465 30.0039 33.7862 30.0039 34.9452V37.2977ZM30.0039 27.3343C30.0039 28.4934 29.056 29.433 27.8865 29.433C26.7171 29.433 25.7692 28.4934 25.7692 27.3343V24.9818C25.7692 23.8228 26.7171 22.8831 27.8865 22.8831C29.056 22.8831 30.0039 23.8228 30.0039 24.9818V27.3343ZM39.6273 37.2977C39.6273 38.4567 38.6794 39.3964 37.51 39.3964C36.3406 39.3964 35.3926 38.4567 35.3926 37.2977V34.9452C35.3926 33.7862 36.3406 32.8465 37.51 32.8465C38.6794 32.8465 39.6273 33.7862 39.6273 34.9452V37.2977ZM39.6273 27.3343C39.6273 28.4934 38.6794 29.433 37.51 29.433C36.3406 29.433 35.3926 28.4934 35.3926 27.3343V24.9818C35.3926 23.8228 36.3406 22.8831 37.51 22.8831C38.6794 22.8831 39.6273 23.8228 39.6273 24.9818V27.3343ZM37.5151 13.5953H34.3921V16.6908C34.3921 17.8499 33.4442 18.7896 32.2748 18.7896C31.1053 18.7896 30.1574 17.8499 30.1574 16.6908V13.5953H27.0344C25.865 13.5953 24.9171 12.6556 24.9171 11.4966C24.9171 10.3375 25.865 9.39785 27.0344 9.39785H30.1574V6.30221C30.1574 5.14316 31.1053 4.20347 32.2748 4.20347C33.4442 4.20347 34.3921 5.14316 34.3921 6.30221V9.39785H37.5151C38.6845 9.39785 39.6325 10.3375 39.6325 11.4966C39.6325 12.6556 38.6844 13.5953 37.5151 13.5953Z" fill="url(#paint2_linear_1348_68398)"/>
<path d="M2.48001 63.9999H13.253V56.1294H0.7854V62.3053C0.7854 63.2412 1.54407 63.9999 2.48001 63.9999Z" fill="url(#paint3_linear_1348_68398)"/>
<path d="M52.0686 51.8948H64.6062L64.6144 21.7415C64.6147 20.8054 63.8559 20.0464 62.9198 20.0464H52.0686V51.8948ZM58.2049 24.5949C59.3743 24.5949 60.3223 25.5428 60.3223 26.7123C60.3223 27.8817 59.3743 28.8296 58.2049 28.8296C57.0355 28.8296 56.0876 27.8817 56.0876 26.7123C56.0876 25.543 57.0356 24.5949 58.2049 24.5949ZM58.2049 33.6833C59.3743 33.6833 60.3223 34.6312 60.3223 35.8007C60.3223 36.9701 59.3743 37.918 58.2049 37.918C57.0355 37.918 56.0876 36.9701 56.0876 35.8007C56.0876 34.6312 57.0356 33.6833 58.2049 33.6833ZM58.2049 42.7717C59.3743 42.7717 60.3223 43.7196 60.3223 44.8891C60.3223 46.0585 59.3743 47.0064 58.2049 47.0064C57.0355 47.0064 56.0876 46.0585 56.0876 44.8891C56.0876 43.7196 57.0356 42.7717 58.2049 42.7717Z" fill="url(#paint4_linear_1348_68398)"/>
<path d="M52.0686 56.1294V63.9999H62.9088C63.8445 63.9999 64.6032 63.2415 64.6034 62.3058L64.6051 56.1294H52.0686Z" fill="url(#paint5_linear_1348_68398)"/>
</g>
<defs>
<linearGradient id="paint0_linear_1348_68398" x1="29.5626" y1="50.1795" x2="39.3882" y2="55.5713" gradientUnits="userSpaceOnUse">
<stop stop-color="#AAFFDD"/>
<stop offset="1" stop-color="#5DD148"/>
</linearGradient>
<linearGradient id="paint1_linear_1348_68398" x1="2.71884" y1="25.0984" x2="17.9675" y2="31.001" gradientUnits="userSpaceOnUse">
<stop stop-color="#AAFFDD"/>
<stop offset="1" stop-color="#5DD148"/>
</linearGradient>
<linearGradient id="paint2_linear_1348_68398" x1="22.1938" y1="10.1461" x2="57.1721" y2="26.5556" gradientUnits="userSpaceOnUse">
<stop stop-color="#AAFFDD"/>
<stop offset="1" stop-color="#5DD148"/>
</linearGradient>
<linearGradient id="paint3_linear_1348_68398" x1="2.71884" y1="57.3779" x2="7.79586" y2="65.3303" gradientUnits="userSpaceOnUse">
<stop stop-color="#AAFFDD"/>
<stop offset="1" stop-color="#5DD148"/>
</linearGradient>
<linearGradient id="paint4_linear_1348_68398" x1="54.0142" y1="25.0984" x2="69.3334" y2="31.0655" gradientUnits="userSpaceOnUse">
<stop stop-color="#AAFFDD"/>
<stop offset="1" stop-color="#5DD148"/>
</linearGradient>
<linearGradient id="paint5_linear_1348_68398" x1="54.0127" y1="57.3779" x2="59.0779" y2="65.3556" gradientUnits="userSpaceOnUse">
<stop stop-color="#AAFFDD"/>
<stop offset="1" stop-color="#5DD148"/>
</linearGradient>
<clipPath id="clip0_1348_68398">
<rect width="64" height="64" fill="white" transform="translate(0.699951)"/>
</clipPath>
</defs>
</svg>
