<svg width="65" height="64" viewBox="0 0 65 64" fill="none" xmlns="http://www.w3.org/2000/svg">
<g clip-path="url(#clip0_879_43523)">
<path d="M53.6937 21.5675C54.1426 21.0759 54.5284 20.6515 54.5536 20.6392L62.3458 11.8C63.756 10.2002 64.1996 8.02842 63.5326 5.99025C62.8864 4.0157 61.3048 2.57505 59.3015 2.13628C57.8835 1.8254 55.7558 1.8904 53.6744 3.9637C52.9096 4.72535 51.6777 4.73985 50.8952 3.99683C47.5775 0.84563 44.1734 1.86503 42.2667 3.6957C39.3465 6.49914 40.057 10.1238 41.9577 12.3225L50.8345 21.6009C51.6177 22.4193 52.9301 22.4039 53.6937 21.5675Z" fill="url(#paint0_linear_879_43523)"/>
<path d="M57.5264 23.2947C57.5149 23.3079 57.5032 23.3207 57.4914 23.3335L55.1851 25.8152C55.1741 25.8269 55.163 25.8387 55.1518 25.8502C54.3937 26.6272 53.3408 27.0718 52.2606 27.0718H52.2414C51.147 27.0664 50.1273 26.6277 49.3699 25.8362L39.227 15.2343L37.6148 15.9611C34.1703 17.5138 30.2174 17.5185 26.7696 15.9734L22.5041 14.0623C21.4997 13.6121 21.0502 12.433 21.5003 11.4285C21.9502 10.4239 23.1294 9.97454 24.1342 10.4246L28.3996 12.3357C30.8086 13.4151 33.5703 13.412 35.9767 12.327L37.0256 11.8541C35.4329 7.96112 36.6133 3.89278 39.114 1.21946C33.4816 2.22211 27.7014 1.99261 22.1367 0.530823C20.7396 0.163814 19.2688 -0.0214403 17.7511 0.00168525C5.86073 0.0678118 -1.9667 13.219 3.58393 23.6516L9.1083 34.7289C10.2712 37.0607 10.989 39.5889 11.225 42.1838L12.8599 60.1683C13.3274 64.6689 19.5027 65.419 21.0357 61.1685C22.8986 55.7837 27.3482 44.5739 32.1907 44.2878C37.0847 43.9988 41.6972 55.7541 43.5799 61.2442C44.1454 62.8935 45.6968 63.9999 47.4403 63.9999C49.5337 63.9999 51.2878 62.4163 51.5012 60.3338L53.3913 41.8787C53.6367 39.4824 54.2936 37.1462 55.3328 34.9731L60.4055 24.3659C61.4308 22.604 62.0628 20.2195 62.3182 17.8594L57.5264 23.2947Z" fill="url(#paint1_linear_879_43523)"/>
</g>
<defs>
<linearGradient id="paint0_linear_879_43523" x1="43.9511" y1="5.17855" x2="58.2021" y2="21.5676" gradientUnits="userSpaceOnUse">
<stop stop-color="#AAFFDD"/>
<stop offset="1" stop-color="#5DD148"/>
</linearGradient>
<linearGradient id="paint1_linear_879_43523" x1="11.1537" y1="10.152" x2="56.5647" y2="52.6378" gradientUnits="userSpaceOnUse">
<stop stop-color="#AAFFDD"/>
<stop offset="1" stop-color="#5DD148"/>
</linearGradient>
<clipPath id="clip0_879_43523">
<rect width="64" height="64" fill="white" transform="translate(0.800049)"/>
</clipPath>
</defs>
</svg>
