<svg width="64" height="64" viewBox="0 0 64 64" fill="none" xmlns="http://www.w3.org/2000/svg">
<g clip-path="url(#clip0_1348_68694)">
<path d="M2.01797 43.1617C-1.70435 46.8877 -0.0290111 53.23 5.0104 54.6592V62.062C5.0104 63.0992 5.85214 63.9409 6.88928 63.9409C7.92643 63.9409 8.76817 63.0992 8.76817 62.062V54.9223H25.3023V41.1438H6.88928C5.05061 41.1438 3.32079 41.8603 2.01797 43.1617Z" fill="url(#paint0_linear_1348_68694)"/>
<path d="M60.2349 43.3249V43.3175C62.3109 43.3175 64 41.6285 64 39.5523C64 37.4762 62.3111 35.7872 60.2349 35.7872H57.8696C57.8696 34.0878 57.8696 19.9347 57.8696 17.4698C57.8696 12.2891 53.6559 8.0754 48.4752 8.0754H40.8344V1.93772C40.8344 0.900577 39.9927 0.0588379 38.9555 0.0588379H30.939C29.9018 0.0588379 29.0601 0.900577 29.0601 1.93772V8.0754H22.4214C17.2407 8.0754 13.027 12.2891 13.027 17.4698V22.4113C10.6984 23.1979 9.01868 25.4012 9.01868 27.9916C9.01868 31.2383 11.6591 33.8787 14.9058 33.8787C18.1526 33.8787 20.793 31.2383 20.793 27.9916C20.793 25.4012 19.1133 23.1979 16.7847 22.4113V17.4698C16.7847 14.3621 19.3137 11.8332 22.4214 11.8332H29.0601V62.062C29.0601 63.0991 29.9018 63.9408 30.939 63.9408H38.9555C39.9927 63.9408 40.8344 63.0991 40.8344 62.062V11.8332H48.4752C51.5829 11.8332 54.1119 14.3621 54.1119 17.4698V35.7872H51.7466C49.6706 35.7872 47.9814 37.4762 47.9814 39.5523C47.9814 41.6285 49.6704 43.3175 51.7466 43.3175V43.3249C49.6706 43.3249 47.9814 45.0139 47.9814 47.09C47.9814 49.1662 49.6707 50.855 51.7467 50.855H54.112V56.0497C54.112 57.0873 54.9532 57.9285 55.9909 57.9285C57.0285 57.9285 57.8697 57.0873 57.8697 56.0497C57.8697 54.3142 57.8697 52.587 57.8697 50.855H60.235C62.3111 50.855 64.0002 49.1661 64.0002 47.0899C64.0002 45.0137 62.3111 43.3249 60.2349 43.3249Z" fill="url(#paint1_linear_1348_68694)"/>
</g>
<defs>
<linearGradient id="paint0_linear_1348_68694" x1="3.92381" y1="44.7601" x2="20.0654" y2="62.475" gradientUnits="userSpaceOnUse">
<stop stop-color="#AAFFDD"/>
<stop offset="1" stop-color="#5DD148"/>
</linearGradient>
<linearGradient id="paint1_linear_1348_68694" x1="17.545" y1="10.1923" x2="62.3882" y2="48.3556" gradientUnits="userSpaceOnUse">
<stop stop-color="#AAFFDD"/>
<stop offset="1" stop-color="#5DD148"/>
</linearGradient>
<clipPath id="clip0_1348_68694">
<rect width="64" height="64" fill="white"/>
</clipPath>
</defs>
</svg>
