<svg width="65" height="64" viewBox="0 0 65 64" fill="none" xmlns="http://www.w3.org/2000/svg">
<path d="M19.288 29.0602C19.288 27.0217 20.3791 25.2347 22.0071 24.2485C21.8746 23.8383 21.8022 23.4015 21.8022 22.9478C21.8022 21.6272 22.0399 20.3611 22.4741 19.1896C22.1444 18.9011 21.7139 18.7251 21.2414 18.7251H17.0479C16.0124 18.7251 15.1729 19.5646 15.1729 20.6001V36.2612C15.1729 37.2967 16.0124 38.1362 17.0479 38.1362H21.2414C21.9724 38.1362 22.604 37.717 22.9132 37.1068C22.3952 36.0907 22.0406 34.978 21.8894 33.8018C20.3261 32.8015 19.288 31.0498 19.288 29.0602Z" fill="url(#paint0_linear_879_43531)"/>
<path d="M47.7516 18.7251H43.5581C43.3384 18.7251 43.1286 18.7648 42.9331 18.8348V18.9025C42.9331 19.7815 42.7944 20.6283 42.5396 21.4238L42.827 24.2807C44.4236 25.2742 45.4887 27.0452 45.4887 29.0602C45.4887 31.0392 44.4616 32.7827 42.9122 33.7856C42.7621 34.9676 42.4066 36.0858 41.8862 37.1066C42.1955 37.7168 42.8272 38.1361 43.5581 38.1361H47.7516C48.7871 38.1361 49.6266 37.2966 49.6266 36.2611V20.6001C49.6266 19.5645 48.7872 18.7251 47.7516 18.7251Z" fill="url(#paint1_linear_879_43531)"/>
<path d="M37.5256 43.3299C36.8927 43.3299 36.3796 42.8167 36.3796 42.1839V42.0369C35.2654 42.4561 34.0597 42.6872 32.8007 42.6872H31.9987C30.7397 42.6872 29.5341 42.4562 28.4199 42.037V42.1839C28.4199 42.8169 27.9067 43.3299 27.2739 43.3299C23.8989 43.5204 21.1802 46.1626 20.8701 49.5041H43.9294C43.6194 46.1626 40.9006 43.5204 37.5256 43.3299Z" fill="url(#paint2_linear_879_43531)"/>
<path d="M39.8638 27.1855H39.2438V26.4606C39.2438 26.2422 39.2327 26.0264 39.2115 25.8135C37.9017 26.6814 36.333 27.1885 34.6476 27.1885L25.556 27.1855H24.9131C23.8776 27.1855 23.0381 28.025 23.0381 29.0605C23.0381 30.096 23.8776 30.9355 24.9131 30.9355H25.556V32.4944C25.556 36.0527 28.4406 38.9372 31.999 38.9372H32.801C36.3593 38.9372 39.2438 36.0526 39.2438 32.4944V30.9355H39.8638C40.8993 30.9355 41.7388 30.096 41.7388 29.0605C41.7388 28.025 40.8993 27.1855 39.8638 27.1855Z" fill="url(#paint3_linear_879_43531)"/>
<path d="M34.6474 23.4384H26.0425C25.7716 23.4384 25.552 23.2187 25.552 22.9479C25.552 19.0306 28.7276 15.855 32.6449 15.855H38.6928C38.9636 15.855 39.1833 16.0746 39.1833 16.3455V18.9026C39.1833 21.4076 37.1525 23.4384 34.6474 23.4384Z" fill="url(#paint4_linear_879_43531)"/>
<path d="M49.9396 63.9999H14.8601V55.1289C14.8601 54.0934 15.6996 53.2539 16.7351 53.2539H48.0645C49.1 53.2539 49.9395 54.0934 49.9395 55.1289V63.9999H49.9396Z" fill="url(#paint5_linear_879_43531)"/>
<path d="M64.3998 37.373H56.5796C55.5441 37.373 54.7046 36.5335 54.7046 35.498V28.502C54.7046 27.4665 55.5441 26.627 56.5796 26.627H64.3998V37.373Z" fill="url(#paint6_linear_879_43531)"/>
<path d="M8.22015 37.373H0.399902V26.627H8.22015C9.25565 26.627 10.0952 27.4665 10.0952 28.502V35.498C10.0952 36.5335 9.25565 37.373 8.22015 37.373Z" fill="url(#paint7_linear_879_43531)"/>
<path d="M8.22009 22.877C8.85821 22.877 9.47121 22.9853 10.0435 23.182C12.6853 16.5086 18.2322 11.2902 25.1167 9.09596C24.9536 8.96096 24.7926 8.82271 24.6361 8.67796C22.7333 6.91834 21.4988 4.58996 21.1022 2.05371C11.8048 5.56321 4.57109 13.2772 1.72021 22.877H8.22009Z" fill="url(#paint8_linear_879_43531)"/>
<path d="M54.7562 23.1821C55.3285 22.9853 55.9415 22.8771 56.5796 22.8771H63.0795C60.2286 13.2773 52.9949 5.56333 43.6974 2.05396C43.3007 4.59021 42.0662 6.91858 40.1635 8.67821C40.007 8.82283 39.8461 8.9612 39.6829 9.0962C46.5675 11.2903 52.1144 16.5087 54.7562 23.1821Z" fill="url(#paint9_linear_879_43531)"/>
<path d="M11.1102 55.129C11.1102 52.2757 13.2462 49.9135 16.0028 49.5532C13.4187 47.1377 11.3656 44.1612 10.0424 40.8184C9.47043 41.0149 8.85793 41.123 8.22018 41.123H1.72168C3.43543 46.8942 6.73231 51.9834 11.1102 55.8879V55.129Z" fill="url(#paint10_linear_879_43531)"/>
<path d="M56.5795 41.123C55.9417 41.123 55.3291 41.0147 54.7572 40.8184C53.4341 44.1612 51.381 47.1379 48.7969 49.5532C51.5535 49.9135 53.6895 52.2757 53.6895 55.129V55.8879C58.0672 51.9835 61.3642 46.8942 63.078 41.123H56.5795Z" fill="url(#paint11_linear_879_43531)"/>
<path d="M24.7385 0.9255C25.0685 4.86875 28.3714 7.96688 32.3999 7.96688C36.4284 7.96688 39.7313 4.86888 40.0613 0.9255C37.6064 0.32225 35.0409 0 32.3999 0C29.7589 0 27.1934 0.32225 24.7385 0.9255Z" fill="url(#paint12_linear_879_43531)"/>
<defs>
<linearGradient id="paint0_linear_879_43531" x1="16.3732" y1="21.8042" x2="25.794" y2="25.5188" gradientUnits="userSpaceOnUse">
<stop stop-color="#AAFFDD"/>
<stop offset="1" stop-color="#5DD148"/>
</linearGradient>
<linearGradient id="paint1_linear_879_43531" x1="43.0866" y1="21.8042" x2="52.5074" y2="25.5188" gradientUnits="userSpaceOnUse">
<stop stop-color="#AAFFDD"/>
<stop offset="1" stop-color="#5DD148"/>
</linearGradient>
<linearGradient id="paint2_linear_879_43531" x1="24.4461" y1="43.2214" x2="27.5872" y2="52.8129" gradientUnits="userSpaceOnUse">
<stop stop-color="#AAFFDD"/>
<stop offset="1" stop-color="#5DD148"/>
</linearGradient>
<linearGradient id="paint3_linear_879_43531" x1="25.9381" y1="27.8953" x2="34.7477" y2="40.308" gradientUnits="userSpaceOnUse">
<stop stop-color="#AAFFDD"/>
<stop offset="1" stop-color="#5DD148"/>
</linearGradient>
<linearGradient id="paint4_linear_879_43531" x1="27.6659" y1="17.0579" x2="32.275" y2="25.2501" gradientUnits="userSpaceOnUse">
<stop stop-color="#AAFFDD"/>
<stop offset="1" stop-color="#5DD148"/>
</linearGradient>
<linearGradient id="paint5_linear_879_43531" x1="20.3001" y1="54.9585" x2="24.6203" y2="68.9035" gradientUnits="userSpaceOnUse">
<stop stop-color="#AAFFDD"/>
<stop offset="1" stop-color="#5DD148"/>
</linearGradient>
<linearGradient id="paint6_linear_879_43531" x1="56.2081" y1="28.3316" x2="63.8003" y2="35.1047" gradientUnits="userSpaceOnUse">
<stop stop-color="#AAFFDD"/>
<stop offset="1" stop-color="#5DD148"/>
</linearGradient>
<linearGradient id="paint7_linear_879_43531" x1="1.90341" y1="28.3316" x2="9.49558" y2="35.1047" gradientUnits="userSpaceOnUse">
<stop stop-color="#AAFFDD"/>
<stop offset="1" stop-color="#5DD148"/>
</linearGradient>
<linearGradient id="paint8_linear_879_43531" x1="5.34847" y1="5.40524" x2="20.3116" y2="21.7893" gradientUnits="userSpaceOnUse">
<stop stop-color="#AAFFDD"/>
<stop offset="1" stop-color="#5DD148"/>
</linearGradient>
<linearGradient id="paint9_linear_879_43531" x1="43.3111" y1="5.40546" x2="58.2741" y2="21.7896" gradientUnits="userSpaceOnUse">
<stop stop-color="#AAFFDD"/>
<stop offset="1" stop-color="#5DD148"/>
</linearGradient>
<linearGradient id="paint10_linear_879_43531" x1="3.93635" y1="43.2088" x2="14.63" y2="53.2296" gradientUnits="userSpaceOnUse">
<stop stop-color="#AAFFDD"/>
<stop offset="1" stop-color="#5DD148"/>
</linearGradient>
<linearGradient id="paint11_linear_879_43531" x1="51.0115" y1="43.2088" x2="61.7052" y2="53.2296" gradientUnits="userSpaceOnUse">
<stop stop-color="#AAFFDD"/>
<stop offset="1" stop-color="#5DD148"/>
</linearGradient>
<linearGradient id="paint12_linear_879_43531" x1="27.1147" y1="1.26377" x2="31.7822" y2="10.1403" gradientUnits="userSpaceOnUse">
<stop stop-color="#AAFFDD"/>
<stop offset="1" stop-color="#5DD148"/>
</linearGradient>
</defs>
</svg>
