<svg width="161" height="160" viewBox="0 0 161 160" fill="none" xmlns="http://www.w3.org/2000/svg">
<path d="M45.4416 67.6447H47.1325V81.8495C47.1325 93.4896 56.7997 103.157 68.4397 103.157C80.0796 103.157 89.7467 93.4896 89.7467 81.8495V67.6447H91.4377C92.2832 67.6447 93.1287 66.7992 93.1287 65.9254C93.1287 65.0517 92.2832 64.2344 91.4377 64.2344H84.3354C83.4899 64.2344 82.6443 65.0799 82.6443 65.9254C82.6443 66.771 83.4899 67.6447 84.3354 67.6447H86.3364V81.8495C86.3364 91.5167 78.3886 99.7465 68.4397 99.7465C58.4907 99.7465 50.5428 91.7985 50.5428 81.8495V67.6447H52.2339C53.0794 67.6447 53.9249 66.7992 53.9249 65.9254C53.9249 65.0517 53.0794 64.2344 52.2339 64.2344H45.1315C44.286 64.2344 43.4404 65.0799 43.4404 65.9254C43.7223 66.771 44.5678 67.6447 45.4416 67.6447Z" fill="#5DD148"/>
<path d="M158.825 90.3837H144.621V89.5382C144.621 80.1529 136.955 72.7686 127.851 72.7686C118.748 72.7686 111.082 80.4348 111.082 89.5382V90.3837H107.39V51.4614C107.39 50.6159 106.544 49.7422 105.699 49.7422H2.54555C1.70003 49.7422 0.854492 50.5877 0.854492 51.4614C0.854492 163.127 0.854509 158.59 1.13635 159.153C1.13635 159.153 1.13628 159.435 1.41812 159.435L1.69998 159.717C1.88787 159.717 1.98183 159.811 1.98183 159.999H158.825C159.671 159.999 160.545 159.153 160.545 158.308V92.103C160.545 91.2575 159.699 90.4119 158.825 90.4119V90.3837ZM114.492 89.5382C114.492 82.154 120.467 76.179 127.851 76.179C135.236 76.179 141.211 82.154 141.211 89.5382V90.3837H114.492V89.5382ZM103.698 90.3837H96.5954C95.7499 90.3837 94.9043 91.2293 94.9043 92.0748V142.102H32.6742V138.128H64.7757C65.6212 138.128 66.4667 137.282 66.4667 136.409C66.4667 135.535 65.6212 134.717 64.7757 134.717H32.6742V53.1525H103.726V90.3837H103.698ZM16.7502 146.639L26.6991 156.588H6.80126L16.7502 146.639ZM32.6742 145.794H94.9043V156.588H32.6742V145.794ZM29.2639 53.1525V154.024L18.4695 143.229V97.7681C18.4695 96.9225 17.6239 96.077 16.7784 96.077C15.9329 96.077 15.0874 96.9225 15.0874 97.7681V143.229L4.29294 154.024V53.1525H29.2921H29.2639ZM98.5964 156.588V94.0759H111.11V106.59C111.11 107.435 111.956 108.281 112.829 108.281C113.703 108.281 114.52 107.435 114.52 106.59V94.0759H141.239V106.59C141.239 107.435 142.084 108.281 142.958 108.281C143.832 108.281 144.649 107.435 144.649 106.59V94.0759H157.163V108.281H151.751C150.906 108.281 150.06 109.126 150.06 110C150.06 110.874 150.906 111.691 151.751 111.691H157.163V113.41H151.751C150.906 113.41 150.06 114.256 150.06 115.101C150.06 115.947 150.906 116.792 151.751 116.792H157.163V118.793H151.751C150.906 118.793 150.06 119.639 150.06 120.513C150.06 121.386 150.906 122.204 151.751 122.204H157.163V123.895H151.751C150.906 123.895 150.06 124.74 150.06 125.614C150.06 126.488 150.906 127.305 151.751 127.305H157.163V129.024H151.751C150.906 129.024 150.06 129.87 150.06 130.715C150.06 131.561 150.906 132.435 151.751 132.435H157.163V134.126H151.751C150.906 134.126 150.06 134.971 150.06 135.845C150.06 136.719 150.906 137.536 151.751 137.536H157.163V147.203H107.446C106.601 147.203 105.755 148.049 105.755 148.922C105.755 149.796 106.601 150.613 107.446 150.613H157.163V156.307H98.6246V156.588H98.5964Z" fill="#5DD148"/>
<path d="M120.749 138.665C121.313 139.511 122.44 139.511 123.314 138.947C124.441 138.102 125.597 136.946 126.724 136.101C128.415 138.102 130.698 140.357 132.981 142.921C133.545 143.767 134.672 143.767 135.546 143.203C140.647 138.947 146.058 136.383 146.34 130.689C146.622 126.997 143.775 123.869 139.801 123.869C138.674 123.869 137.8 124.151 136.955 124.432C136.955 124.151 137.237 123.587 137.237 123.023C137.518 118.767 134.39 115.075 130.134 114.793C127.288 114.512 125.315 115.639 123.877 117.076C122.75 115.357 121.031 113.948 118.184 113.666C113.929 113.384 110.236 116.513 109.955 120.768C109.673 126.18 113.083 129.872 117.057 134.128C118.184 135.847 119.622 137.256 120.749 138.665ZM139.773 127.307C141.774 127.307 142.902 128.716 142.902 130.436C142.62 133.846 138.928 135.847 134.672 139.257C130.98 135.001 127.57 132.437 127.851 129.308C127.851 127.899 129.261 126.462 130.98 126.744C131.825 126.744 132.389 127.025 132.981 127.871C133.263 128.435 133.545 128.998 133.826 129.562C134.39 130.971 136.109 130.971 136.955 129.844C138.082 127.871 138.646 127.279 139.801 127.279L139.773 127.307ZM113.337 121.332C113.618 119.049 115.62 117.358 117.874 117.358C119.875 117.64 121.003 118.486 121.848 121.332C122.412 122.741 124.131 122.741 124.977 121.614C126.386 119.049 127.541 118.204 129.514 118.486C131.797 118.767 133.488 120.769 133.488 123.023V123.869C132.924 123.587 132.079 123.305 131.205 123.305C127.795 123.023 124.667 125.588 124.385 129.28C124.385 130.689 124.667 132.127 124.948 133.254C124.103 133.818 123.257 134.663 122.384 135.255C121.538 134.128 120.383 133.254 119.537 132.127C115.563 127.871 112.998 125.024 113.28 121.332H113.337Z" fill="#5DD148"/>
<path d="M32.6463 35.2557C37.4658 35.2557 41.4679 31.2818 41.4679 26.4623C41.4679 21.6428 37.4939 17.6406 32.6463 17.6406C27.7987 17.6406 23.8247 21.6146 23.8247 26.4623C23.8247 31.31 27.7987 35.2557 32.6463 35.2557ZM32.6463 21.051C35.4929 21.051 38.0576 23.3338 38.0576 26.4623C38.0576 29.3089 35.7747 31.8737 32.6463 31.8737C29.5179 31.8737 27.2349 29.5907 27.2349 26.4623C27.5168 23.6157 29.7997 21.051 32.6463 21.051Z" fill="#5DD148"/>
<path d="M136.645 37.2294C142.901 37.2294 148.285 32.0998 148.285 25.5893C148.285 19.0788 143.183 13.9492 136.645 13.9492C130.106 13.9492 125.005 19.0506 125.005 25.5893C125.005 32.128 130.106 37.2294 136.645 37.2294ZM136.645 17.6132C141.182 17.6132 144.593 21.3053 144.593 25.5611C144.593 29.8169 140.9 33.509 136.645 33.509C132.389 33.509 128.697 29.8169 128.697 25.5611C128.697 21.3053 132.107 17.6132 136.645 17.6132Z" fill="#5DD148"/>
<path d="M14.1854 12.2344C15.5946 12.2344 16.75 13.3899 16.75 14.7991C16.75 16.2084 15.5946 17.3638 14.1854 17.3638C12.7762 17.3638 11.6206 16.2084 11.6206 14.7991C11.6206 13.3899 12.7762 12.2344 14.1854 12.2344Z" fill="#5DD148"/>
<path d="M54.8267 7.09766C56.2359 7.09766 57.3915 8.25322 57.3915 9.66243C57.3915 11.0716 56.2359 12.2272 54.8267 12.2272C53.4175 12.2272 52.262 11.0716 52.262 9.66243C52.262 8.25322 53.4175 7.09766 54.8267 7.09766Z" fill="#5DD148"/>
<path d="M95.75 26.4336C97.1592 26.4336 98.3147 27.5892 98.3147 28.9984C98.3147 30.4076 97.1592 31.5631 95.75 31.5631C94.3408 31.5631 93.1853 30.4076 93.1853 28.9984C93.1853 27.5892 94.3408 26.4336 95.75 26.4336Z" fill="#5DD148"/>
<path d="M147.158 54.8438C148.567 54.8438 149.722 55.9993 149.722 57.4085C149.722 58.8177 148.567 59.9733 147.158 59.9733C145.748 59.9733 144.593 58.8177 144.593 57.4085C144.593 55.9993 145.748 54.8438 147.158 54.8438Z" fill="#5DD148"/>
<path d="M70.1588 134.977C71.0889 134.977 71.8499 135.738 71.8499 136.668C71.8499 137.598 71.0889 138.387 70.1588 138.387C69.2288 138.387 68.4678 137.626 68.4678 136.668C68.4678 135.709 69.2288 134.977 70.1588 134.977Z" fill="#5DD148"/>
<path d="M75.2882 134.977C76.2183 134.977 76.9793 135.738 76.9793 136.668C76.9793 137.598 76.2183 138.387 75.2882 138.387C74.3582 138.387 73.5972 137.626 73.5972 136.668C73.5972 135.709 74.3582 134.977 75.2882 134.977Z" fill="#5DD148"/>
<path d="M149.158 0C150.567 0 151.723 1.15548 151.723 2.56468C151.723 3.97389 150.567 5.12946 149.158 5.12946C147.749 5.12946 146.594 3.97389 146.594 2.56468C146.594 1.15548 147.749 0 149.158 0Z" fill="#5DD148"/>
</svg>
